<svg width="75" height="62" viewBox="0 0 75 62" fill="none" xmlns="http://www.w3.org/2000/svg">
<g clip-path="url(#clip0_12_286)">
<path d="M8.47015 8.77176C8.32906 4.67956 11.4857 0.906006 15.7525 0.906006H59.4738C63.7406 0.906006 66.8972 4.67956 66.7561 8.77176C66.6206 12.7027 66.7966 17.7948 68.0653 21.9468C69.3382 26.1115 71.4846 28.744 74.9999 29.0823V32.9178C71.4846 33.2561 69.3382 35.8886 68.0653 40.0533C66.7966 44.2053 66.6206 49.2974 66.7561 53.2285C66.8972 57.3205 63.7406 61.0941 59.4738 61.0941H15.7525C11.4857 61.0941 8.32906 57.3205 8.47029 53.2285C8.60568 49.2974 8.42969 44.2053 7.16078 40.0533C5.88808 35.8886 3.73643 33.2561 0.220947 32.9178V29.0823C3.73629 28.744 5.88808 26.1115 7.16078 21.9468C8.42969 17.7948 8.60568 12.7027 8.47015 8.77176Z" fill="#888888"/>
<g filter="url(#filter0_d_12_286)">
<path d="M39.232 46.9996C46.1399 46.9996 50.3025 43.5833 50.3025 37.9485C50.3025 33.6892 47.3324 30.6056 42.9222 30.1174V29.94C46.1624 29.4076 48.705 26.3684 48.705 22.9742C48.705 18.1381 44.9249 14.9878 39.1646 14.9878H26.2039V46.9996H39.232ZM31.2441 19.0475H37.9496C41.5947 19.0475 43.6647 20.6891 43.6647 23.6618C43.6647 26.8342 41.2572 28.6089 36.892 28.6089H31.2441V19.0475ZM31.2441 42.94V32.4025H37.9044C42.6747 32.4025 45.1498 34.1772 45.1498 37.638C45.1498 41.0987 42.7423 42.94 38.197 42.94H31.2441Z" fill="url(#paint0_linear_12_286)"/>
<path d="M39.232 46.9996C46.1399 46.9996 50.3025 43.5833 50.3025 37.9485C50.3025 33.6892 47.3324 30.6056 42.9222 30.1174V29.94C46.1624 29.4076 48.705 26.3684 48.705 22.9742C48.705 18.1381 44.9249 14.9878 39.1646 14.9878H26.2039V46.9996H39.232ZM31.2441 19.0475H37.9496C41.5947 19.0475 43.6647 20.6891 43.6647 23.6618C43.6647 26.8342 41.2572 28.6089 36.892 28.6089H31.2441V19.0475ZM31.2441 42.94V32.4025H37.9044C42.6747 32.4025 45.1498 34.1772 45.1498 37.638C45.1498 41.0987 42.7423 42.94 38.197 42.94H31.2441Z" stroke="white"/>
</g>
</g>
<defs>
<filter id="filter0_d_12_286" x="9.70386" y="2.48779" width="57.0986" height="65.0118" filterUnits="userSpaceOnUse" color-interpolation-filters="sRGB">
<feFlood flood-opacity="0" result="BackgroundImageFix"/>
<feColorMatrix in="SourceAlpha" type="matrix" values="0 0 0 0 0 0 0 0 0 0 0 0 0 0 0 0 0 0 127 0" result="hardAlpha"/>
<feOffset dy="4"/>
<feGaussianBlur stdDeviation="8"/>
<feColorMatrix type="matrix" values="0 0 0 0 0 0 0 0 0 0 0 0 0 0 0 0 0 0 0.15 0"/>
<feBlend mode="normal" in2="BackgroundImageFix" result="effect1_dropShadow_12_286"/>
<feBlend mode="normal" in="SourceGraphic" in2="effect1_dropShadow_12_286" result="shape"/>
</filter>
<linearGradient id="paint0_linear_12_286" x1="28.4833" y1="17.0948" x2="43.3068" y2="41.9153" gradientUnits="userSpaceOnUse">
<stop stop-color="white"/>
<stop offset="1" stop-color="#F1E5FC"/>
</linearGradient>
<clipPath id="clip0_12_286">
<rect width="74.7789" height="60.1881" fill="white" transform="translate(0.220947 0.906006)"/>
</clipPath>
</defs>
</svg>
