<svg width="222" height="120" viewBox="0 0 222 120" fill="none" xmlns="http://www.w3.org/2000/svg">
<mask id="mask0_303_63" style="mask-type:alpha" maskUnits="userSpaceOnUse" x="0" y="0" width="222" height="120">
<rect width="222" height="120" rx="2" fill="url(#paint0_radial_303_63)"/>
</mask>
<g mask="url(#mask0_303_63)">
<rect width="222" height="120" rx="2" fill="#31276B"/>
<circle cx="7" cy="85" r="1" fill="white"/>
<circle cx="17" cy="85" r="1" fill="white"/>
<circle cx="27" cy="85" r="1" fill="white"/>
<circle cx="37" cy="85" r="1" fill="white"/>
<circle cx="7" cy="95" r="1" fill="white"/>
<circle cx="17" cy="95" r="1" fill="white"/>
<circle cx="27" cy="95" r="1" fill="white"/>
<circle cx="37" cy="95" r="1" fill="white"/>
<circle cx="7" cy="105" r="1" fill="white"/>
<circle cx="17" cy="105" r="1" fill="white"/>
<circle cx="27" cy="105" r="1" fill="white"/>
<circle cx="37" cy="105" r="1" fill="white"/>
<circle cx="7" cy="115" r="1" fill="white"/>
<circle cx="17" cy="115" r="1" fill="white"/>
<circle cx="27" cy="115" r="1" fill="white"/>
<circle cx="37" cy="115" r="1" fill="white"/>
<circle cx="43" cy="109" r="25" fill="#1F1D2B" fill-opacity="0.4"/>
<circle cx="209" cy="4" r="25" fill="#1F1D2B" fill-opacity="0.4"/>
<circle cx="185" r="1" fill="white"/>
<circle cx="195" r="1" fill="white"/>
<circle cx="205" r="1" fill="white"/>
<circle cx="215" r="1" fill="white"/>
<circle cx="185" cy="10" r="1" fill="white"/>
<circle cx="195" cy="10" r="1" fill="white"/>
<circle cx="205" cy="10" r="1" fill="white"/>
<circle cx="215" cy="10" r="1" fill="white"/>
<circle cx="185" cy="20" r="1" fill="white"/>
<circle cx="195" cy="20" r="1" fill="white"/>
<circle cx="205" cy="20" r="1" fill="white"/>
<circle cx="215" cy="20" r="1" fill="white"/>
<circle cx="185" cy="30" r="1" fill="white"/>
<circle cx="195" cy="30" r="1" fill="white"/>
<circle cx="205" cy="30" r="1" fill="white"/>
<circle cx="215" cy="30" r="1" fill="white"/>
<path d="M87.528 60.368C87.528 59.2587 87.768 58.272 88.248 57.408C88.728 56.5333 89.3947 55.856 90.248 55.376C91.112 54.8853 92.088 54.64 93.176 54.64C94.5093 54.64 95.6507 54.992 96.6 55.696C97.5493 56.4 98.184 57.36 98.504 58.576H95.496C95.272 58.1067 94.952 57.7493 94.536 57.504C94.1307 57.2587 93.6667 57.136 93.144 57.136C92.3013 57.136 91.6187 57.4293 91.096 58.016C90.5733 58.6027 90.312 59.3867 90.312 60.368C90.312 61.3493 90.5733 62.1333 91.096 62.72C91.6187 63.3067 92.3013 63.6 93.144 63.6C93.6667 63.6 94.1307 63.4773 94.536 63.232C94.952 62.9867 95.272 62.6293 95.496 62.16H98.504C98.184 63.376 97.5493 64.336 96.6 65.04C95.6507 65.7333 94.5093 66.08 93.176 66.08C92.088 66.08 91.112 65.84 90.248 65.36C89.3947 64.8693 88.728 64.192 88.248 63.328C87.768 62.464 87.528 61.4773 87.528 60.368ZM104.544 66.112C103.722 66.112 102.986 65.9787 102.336 65.712C101.685 65.4453 101.162 65.0507 100.768 64.528C100.384 64.0053 100.181 63.376 100.16 62.64H103.072C103.114 63.056 103.258 63.376 103.504 63.6C103.749 63.8133 104.069 63.92 104.464 63.92C104.869 63.92 105.189 63.8293 105.424 63.648C105.658 63.456 105.776 63.1947 105.776 62.864C105.776 62.5867 105.68 62.3573 105.488 62.176C105.306 61.9947 105.077 61.8453 104.8 61.728C104.533 61.6107 104.149 61.4773 103.648 61.328C102.922 61.104 102.33 60.88 101.872 60.656C101.413 60.432 101.018 60.1013 100.688 59.664C100.357 59.2267 100.192 58.656 100.192 57.952C100.192 56.9067 100.57 56.0907 101.328 55.504C102.085 54.9067 103.072 54.608 104.288 54.608C105.525 54.608 106.522 54.9067 107.28 55.504C108.037 56.0907 108.442 56.912 108.496 57.968H105.536C105.514 57.6053 105.381 57.3227 105.136 57.12C104.89 56.9067 104.576 56.8 104.192 56.8C103.861 56.8 103.594 56.8907 103.392 57.072C103.189 57.2427 103.088 57.4933 103.088 57.824C103.088 58.1867 103.258 58.4693 103.6 58.672C103.941 58.8747 104.474 59.0933 105.2 59.328C105.925 59.5733 106.512 59.808 106.96 60.032C107.418 60.256 107.813 60.5813 108.144 61.008C108.474 61.4347 108.64 61.984 108.64 62.656C108.64 63.296 108.474 63.8773 108.144 64.4C107.824 64.9227 107.354 65.3387 106.736 65.648C106.117 65.9573 105.386 66.112 104.544 66.112ZM114.687 66.112C113.866 66.112 113.13 65.9787 112.479 65.712C111.829 65.4453 111.306 65.0507 110.911 64.528C110.527 64.0053 110.325 63.376 110.303 62.64H113.215C113.258 63.056 113.402 63.376 113.647 63.6C113.893 63.8133 114.213 63.92 114.607 63.92C115.013 63.92 115.333 63.8293 115.567 63.648C115.802 63.456 115.919 63.1947 115.919 62.864C115.919 62.5867 115.823 62.3573 115.631 62.176C115.45 61.9947 115.221 61.8453 114.943 61.728C114.677 61.6107 114.293 61.4773 113.791 61.328C113.066 61.104 112.474 60.88 112.015 60.656C111.557 60.432 111.162 60.1013 110.831 59.664C110.501 59.2267 110.335 58.656 110.335 57.952C110.335 56.9067 110.714 56.0907 111.471 55.504C112.229 54.9067 113.215 54.608 114.431 54.608C115.669 54.608 116.666 54.9067 117.423 55.504C118.181 56.0907 118.586 56.912 118.639 57.968H115.679C115.658 57.6053 115.525 57.3227 115.279 57.12C115.034 56.9067 114.719 56.8 114.335 56.8C114.005 56.8 113.738 56.8907 113.535 57.072C113.333 57.2427 113.231 57.4933 113.231 57.824C113.231 58.1867 113.402 58.4693 113.743 58.672C114.085 58.8747 114.618 59.0933 115.343 59.328C116.069 59.5733 116.655 59.808 117.103 60.032C117.562 60.256 117.957 60.5813 118.287 61.008C118.618 61.4347 118.783 61.984 118.783 62.656C118.783 63.296 118.618 63.8773 118.287 64.4C117.967 64.9227 117.498 65.3387 116.879 65.648C116.261 65.9573 115.53 66.112 114.687 66.112ZM124.282 57.616C124.324 56.4747 124.698 55.5947 125.402 54.976C126.106 54.3573 127.06 54.048 128.266 54.048C129.066 54.048 129.748 54.1867 130.314 54.464C130.89 54.7413 131.322 55.12 131.61 55.6C131.908 56.08 132.058 56.6187 132.058 57.216C132.058 57.92 131.882 58.496 131.53 58.944C131.178 59.3813 130.767 59.68 130.298 59.84V59.904C130.906 60.1067 131.386 60.4427 131.738 60.912C132.09 61.3813 132.266 61.984 132.266 62.72C132.266 63.3813 132.111 63.968 131.802 64.48C131.503 64.9813 131.06 65.376 130.474 65.664C129.898 65.952 129.21 66.096 128.41 66.096C127.13 66.096 126.106 65.7813 125.338 65.152C124.58 64.5227 124.18 63.5733 124.138 62.304H126.794C126.804 62.7733 126.938 63.1467 127.194 63.424C127.45 63.6907 127.823 63.824 128.314 63.824C128.73 63.824 129.05 63.7067 129.274 63.472C129.508 63.2267 129.626 62.9067 129.626 62.512C129.626 62 129.46 61.632 129.13 61.408C128.81 61.1733 128.292 61.056 127.578 61.056H127.066V58.832H127.578C128.122 58.832 128.559 58.7413 128.89 58.56C129.231 58.368 129.402 58.032 129.402 57.552C129.402 57.168 129.295 56.8693 129.082 56.656C128.868 56.4427 128.575 56.336 128.202 56.336C127.796 56.336 127.492 56.4587 127.29 56.704C127.098 56.9493 126.986 57.2533 126.954 57.616H124.282Z" fill="white"/>
</g>
<defs>
<radialGradient id="paint0_radial_303_63" cx="0" cy="0" r="1" gradientUnits="userSpaceOnUse" gradientTransform="translate(111 60) rotate(90) scale(60 111)">
<stop stop-color="#31276B"/>
<stop offset="1" stop-color="#1F1D2B"/>
</radialGradient>
</defs>
</svg>
