<svg width="1440" height="398" viewBox="0 0 1440 398" fill="none" xmlns="http://www.w3.org/2000/svg">
<mask id="mask0_14_2" style="mask-type:alpha" maskUnits="userSpaceOnUse" x="0" y="0" width="1440" height="398">
<rect width="1440" height="398" fill="#1F1D2B"/>
</mask>
<g mask="url(#mask0_14_2)">
<rect width="1440" height="398" fill="#1F1D2B"/>
<path d="M240 -79.5V398" stroke="#4A4566" stroke-linecap="round" stroke-dasharray="8 8"/>
<path d="M300 -79.5V398" stroke="#4A4566" stroke-linecap="round" stroke-dasharray="8 8"/>
<path d="M420 -79.5V398" stroke="#4A4566" stroke-linecap="round" stroke-dasharray="8 8"/>
<path d="M660 -79.5V398" stroke="#4A4566" stroke-linecap="round" stroke-dasharray="8 8"/>
<path d="M1020 -79.5V398" stroke="#4A4566" stroke-linecap="round" stroke-dasharray="8 8"/>
<path d="M1140 -79.5V398" stroke="#4A4566" stroke-linecap="round" stroke-dasharray="8 8"/>
<path d="M1200 -79.5V398" stroke="#4A4566" stroke-linecap="round" stroke-dasharray="8 8"/>
<path d="M0.5 60H1441.5" stroke="#4A4566" stroke-linecap="round" stroke-dasharray="12 12"/>
<path d="M0.5 180H1441.5" stroke="#4A4566" stroke-linecap="round" stroke-dasharray="12 12"/>
<path d="M0.5 240H1441.5" stroke="#4A4566" stroke-linecap="round" stroke-dasharray="12 12"/>
<g filter="url(#filter0_f_14_2)">
<ellipse cx="334" cy="-51.5" rx="116" ry="82.5" fill="#7F3356" fill-opacity="0.4"/>
</g>
<g filter="url(#filter1_f_14_2)">
<ellipse cx="497.5" cy="-62" rx="140.5" ry="100" fill="#3B215A"/>
</g>
<g filter="url(#filter2_f_14_2)">
<ellipse cx="637.5" cy="-80" rx="140.5" ry="100" fill="#672B30"/>
</g>
<g style="mix-blend-mode:hard-light" filter="url(#filter3_f_14_2)">
<path d="M98.2708 103.146V134.618H64.4337V229.748H24.4771V134.618H-9V103.146H98.2708Z" fill="#E8FF00"/>
<path d="M226.998 103.146V229.748H187.041V180.395H149.064V229.748H109.108V103.146H149.064V148.744H187.041V103.146H226.998Z" fill="#E8FF00"/>
<path d="M284.932 134.796V150.354H324.528V180.216H284.932V198.098H329.928V229.748H244.975V103.146H329.928V134.796H284.932Z" fill="#E8FF00"/>
<path d="M479.78 146.598C479.78 154.586 477.92 161.857 474.201 168.414C470.481 174.851 464.962 179.978 457.642 183.792C450.443 187.607 441.684 189.514 431.364 189.514H415.526V229.748H375.569V103.146H431.364C446.963 103.146 458.902 107.08 467.181 114.948C475.581 122.816 479.78 133.366 479.78 146.598ZM426.865 158.221C435.144 158.221 439.284 154.347 439.284 146.598C439.284 138.85 435.144 134.975 426.865 134.975H415.526V158.221H426.865Z" fill="#E8FF00"/>
<path d="M556.528 229.748L532.59 184.329H532.41V229.748H492.454V103.146H551.849C562.168 103.146 570.987 104.994 578.306 108.689C585.626 112.265 591.085 117.213 594.685 123.531C598.405 129.73 600.264 136.763 600.264 144.631C600.264 153.095 597.865 160.606 593.065 167.162C588.385 173.719 581.606 178.428 572.727 181.289L600.444 229.748H556.528ZM532.41 157.864H548.249C552.089 157.864 554.968 157.029 556.888 155.36C558.808 153.572 559.768 150.83 559.768 147.135C559.768 143.797 558.748 141.174 556.708 139.267C554.788 137.359 551.969 136.406 548.249 136.406H532.41V157.864Z" fill="#E8FF00"/>
<path d="M675.124 231C663.125 231 652.086 228.199 642.007 222.596C632.048 216.993 624.128 209.244 618.249 199.349C612.369 189.455 609.43 178.309 609.43 165.911C609.43 153.513 612.369 142.366 618.249 132.472C624.128 122.577 632.048 114.888 642.007 109.404C652.086 103.801 663.125 101 675.124 101C687.123 101 698.102 103.801 708.061 109.404C718.02 114.888 725.88 122.577 731.639 132.472C737.519 142.366 740.458 153.513 740.458 165.911C740.458 178.309 737.519 189.455 731.639 199.349C725.88 209.244 717.96 216.993 707.881 222.596C697.922 228.199 687.003 231 675.124 231ZM675.124 193.985C683.043 193.985 689.163 191.481 693.482 186.475C697.802 181.348 699.962 174.494 699.962 165.911C699.962 157.208 697.802 150.354 693.482 145.347C689.163 140.221 683.043 137.657 675.124 137.657C667.085 137.657 660.905 140.221 656.586 145.347C652.266 150.354 650.106 157.208 650.106 165.911C650.106 174.494 652.266 181.348 656.586 186.475C660.905 191.481 667.085 193.985 675.124 193.985Z" fill="#E8FF00"/>
<path d="M854.944 103.146V134.618H821.107V229.748H781.15V134.618H747.673V103.146H854.944Z" fill="#E8FF00"/>
<path d="M927.876 231C915.877 231 904.838 228.199 894.758 222.596C884.799 216.993 876.88 209.244 871 199.349C865.121 189.455 862.181 178.309 862.181 165.911C862.181 153.513 865.121 142.366 871 132.472C876.88 122.577 884.799 114.888 894.758 109.404C904.838 103.801 915.877 101 927.876 101C939.875 101 950.854 103.801 960.813 109.404C970.772 114.888 978.631 122.577 984.391 132.472C990.27 142.366 993.21 153.513 993.21 165.911C993.21 178.309 990.27 189.455 984.391 199.349C978.631 209.244 970.712 216.993 960.633 222.596C950.674 228.199 939.755 231 927.876 231ZM927.876 193.985C935.795 193.985 941.914 191.481 946.234 186.475C950.554 181.348 952.714 174.494 952.714 165.911C952.714 157.208 950.554 150.354 946.234 145.347C941.914 140.221 935.795 137.657 927.876 137.657C919.836 137.657 913.657 140.221 909.337 145.347C905.018 150.354 902.858 157.208 902.858 165.911C902.858 174.494 905.018 181.348 909.337 186.475C913.657 191.481 919.836 193.985 927.876 193.985Z" fill="#E8FF00"/>
<path d="M1047.58 199.707H1086.1V229.748H1007.62V103.146H1047.58V199.707Z" fill="#E8FF00"/>
<path d="M1138.63 103.146V229.748H1098.67V103.146H1138.63Z" fill="#E8FF00"/>
<path d="M1218.77 231C1206.77 231 1195.73 228.199 1185.65 222.596C1175.69 216.993 1167.77 209.244 1161.89 199.349C1156.01 189.455 1153.07 178.309 1153.07 165.911C1153.07 153.513 1156.01 142.366 1161.89 132.472C1167.77 122.577 1175.69 114.888 1185.65 109.404C1195.73 103.801 1206.77 101 1218.77 101C1230.77 101 1241.75 103.801 1251.71 109.404C1261.66 114.888 1269.52 122.577 1275.28 132.472C1281.16 142.366 1284.1 153.513 1284.1 165.911C1284.1 178.309 1281.16 189.455 1275.28 199.349C1269.52 209.244 1261.6 216.993 1251.53 222.596C1241.57 228.199 1230.65 231 1218.77 231ZM1218.77 193.985C1226.69 193.985 1232.81 191.481 1237.13 186.475C1241.45 181.348 1243.61 174.494 1243.61 165.911C1243.61 157.208 1241.45 150.354 1237.13 145.347C1232.81 140.221 1226.69 137.657 1218.77 137.657C1210.73 137.657 1204.55 140.221 1200.23 145.347C1195.91 150.354 1193.75 157.208 1193.75 165.911C1193.75 174.494 1195.91 181.348 1200.23 186.475C1204.55 191.481 1210.73 193.985 1218.77 193.985Z" fill="#E8FF00"/>
<path d="M1388.51 103.146V134.618H1338.47V152.142H1374.47V182.004H1338.47V229.748H1298.52V103.146H1388.51Z" fill="#E8FF00"/>
<path d="M1442 103.146V229.748H1402.04V103.146H1442Z" fill="#E8FF00"/>
</g>
<g style="mix-blend-mode:overlay">
<path d="M98.08 99.56V131.24H64.24V227H24.28V131.24H-9.2V99.56H98.08ZM226.818 99.56V227H186.858V177.32H148.878V227H108.918V99.56H148.878V145.46H186.858V99.56H226.818ZM284.757 131.42V147.08H324.357V177.14H284.757V195.14H329.757V227H244.797V99.56H329.757V131.42H284.757ZM479.622 143.3C479.622 151.34 477.762 158.66 474.042 165.26C470.322 171.74 464.802 176.9 457.482 180.74C450.282 184.58 441.522 186.5 431.202 186.5H415.362V227H375.402V99.56H431.202C446.802 99.56 458.742 103.52 467.022 111.44C475.422 119.36 479.622 129.98 479.622 143.3ZM426.702 155C434.982 155 439.122 151.1 439.122 143.3C439.122 135.5 434.982 131.6 426.702 131.6H415.362V155H426.702ZM556.377 227L532.437 181.28H532.257V227H492.297V99.56H551.697C562.017 99.56 570.837 101.42 578.157 105.14C585.477 108.74 590.937 113.72 594.537 120.08C598.257 126.32 600.117 133.4 600.117 141.32C600.117 149.84 597.717 157.4 592.917 164C588.237 170.6 581.457 175.34 572.577 178.22L600.297 227H556.377ZM532.257 154.64H548.097C551.937 154.64 554.817 153.8 556.737 152.12C558.657 150.32 559.617 147.56 559.617 143.84C559.617 140.48 558.597 137.84 556.557 135.92C554.637 134 551.817 133.04 548.097 133.04H532.257V154.64ZM674.983 228.26C662.983 228.26 651.943 225.44 641.863 219.8C631.903 214.16 623.983 206.36 618.103 196.4C612.223 186.44 609.283 175.22 609.283 162.74C609.283 150.26 612.223 139.04 618.103 129.08C623.983 119.12 631.903 111.38 641.863 105.86C651.943 100.22 662.983 97.4 674.983 97.4C686.983 97.4 697.963 100.22 707.923 105.86C717.883 111.38 725.743 119.12 731.503 129.08C737.383 139.04 740.323 150.26 740.323 162.74C740.323 175.22 737.383 186.44 731.503 196.4C725.743 206.36 717.823 214.16 707.743 219.8C697.783 225.44 686.863 228.26 674.983 228.26ZM674.983 191C682.903 191 689.023 188.48 693.343 183.44C697.663 178.28 699.823 171.38 699.823 162.74C699.823 153.98 697.663 147.08 693.343 142.04C689.023 136.88 682.903 134.3 674.983 134.3C666.943 134.3 660.763 136.88 656.443 142.04C652.123 147.08 649.963 153.98 649.963 162.74C649.963 171.38 652.123 178.28 656.443 183.44C660.763 188.48 666.943 191 674.983 191ZM854.818 99.56V131.24H820.978V227H781.018V131.24H747.538V99.56H854.818ZM927.756 228.26C915.756 228.26 904.716 225.44 894.636 219.8C884.676 214.16 876.756 206.36 870.876 196.4C864.996 186.44 862.056 175.22 862.056 162.74C862.056 150.26 864.996 139.04 870.876 129.08C876.756 119.12 884.676 111.38 894.636 105.86C904.716 100.22 915.756 97.4 927.756 97.4C939.756 97.4 950.736 100.22 960.696 105.86C970.656 111.38 978.516 119.12 984.276 129.08C990.156 139.04 993.096 150.26 993.096 162.74C993.096 175.22 990.156 186.44 984.276 196.4C978.516 206.36 970.596 214.16 960.516 219.8C950.556 225.44 939.636 228.26 927.756 228.26ZM927.756 191C935.676 191 941.796 188.48 946.116 183.44C950.436 178.28 952.596 171.38 952.596 162.74C952.596 153.98 950.436 147.08 946.116 142.04C941.796 136.88 935.676 134.3 927.756 134.3C919.716 134.3 913.536 136.88 909.216 142.04C904.896 147.08 902.736 153.98 902.736 162.74C902.736 171.38 904.896 178.28 909.216 183.44C913.536 188.48 919.716 191 927.756 191ZM1047.47 196.76H1085.99V227H1007.51V99.56H1047.47V196.76ZM1138.53 99.56V227H1098.57V99.56H1138.53ZM1218.67 228.26C1206.67 228.26 1195.63 225.44 1185.55 219.8C1175.59 214.16 1167.67 206.36 1161.79 196.4C1155.91 186.44 1152.97 175.22 1152.97 162.74C1152.97 150.26 1155.91 139.04 1161.79 129.08C1167.67 119.12 1175.59 111.38 1185.55 105.86C1195.63 100.22 1206.67 97.4 1218.67 97.4C1230.67 97.4 1241.65 100.22 1251.61 105.86C1261.57 111.38 1269.43 119.12 1275.19 129.08C1281.07 139.04 1284.01 150.26 1284.01 162.74C1284.01 175.22 1281.07 186.44 1275.19 196.4C1269.43 206.36 1261.51 214.16 1251.43 219.8C1241.47 225.44 1230.55 228.26 1218.67 228.26ZM1218.67 191C1226.59 191 1232.71 188.48 1237.03 183.44C1241.35 178.28 1243.51 171.38 1243.51 162.74C1243.51 153.98 1241.35 147.08 1237.03 142.04C1232.71 136.88 1226.59 134.3 1218.67 134.3C1210.63 134.3 1204.45 136.88 1200.13 142.04C1195.81 147.08 1193.65 153.98 1193.65 162.74C1193.65 171.38 1195.81 178.28 1200.13 183.44C1204.45 188.48 1210.63 191 1218.67 191ZM1388.43 99.56V131.24H1338.39V148.88H1374.39V178.94H1338.39V227H1298.43V99.56H1388.43ZM1441.92 99.56V227H1401.96V99.56H1441.92Z" fill="#E8FF00"/>
</g>
<g style="mix-blend-mode:overlay">
<path d="M98.08 99.56V131.24H64.24V227H24.28V131.24H-9.2V99.56H98.08ZM226.818 99.56V227H186.858V177.32H148.878V227H108.918V99.56H148.878V145.46H186.858V99.56H226.818ZM284.757 131.42V147.08H324.357V177.14H284.757V195.14H329.757V227H244.797V99.56H329.757V131.42H284.757ZM479.622 143.3C479.622 151.34 477.762 158.66 474.042 165.26C470.322 171.74 464.802 176.9 457.482 180.74C450.282 184.58 441.522 186.5 431.202 186.5H415.362V227H375.402V99.56H431.202C446.802 99.56 458.742 103.52 467.022 111.44C475.422 119.36 479.622 129.98 479.622 143.3ZM426.702 155C434.982 155 439.122 151.1 439.122 143.3C439.122 135.5 434.982 131.6 426.702 131.6H415.362V155H426.702ZM556.377 227L532.437 181.28H532.257V227H492.297V99.56H551.697C562.017 99.56 570.837 101.42 578.157 105.14C585.477 108.74 590.937 113.72 594.537 120.08C598.257 126.32 600.117 133.4 600.117 141.32C600.117 149.84 597.717 157.4 592.917 164C588.237 170.6 581.457 175.34 572.577 178.22L600.297 227H556.377ZM532.257 154.64H548.097C551.937 154.64 554.817 153.8 556.737 152.12C558.657 150.32 559.617 147.56 559.617 143.84C559.617 140.48 558.597 137.84 556.557 135.92C554.637 134 551.817 133.04 548.097 133.04H532.257V154.64ZM674.983 228.26C662.983 228.26 651.943 225.44 641.863 219.8C631.903 214.16 623.983 206.36 618.103 196.4C612.223 186.44 609.283 175.22 609.283 162.74C609.283 150.26 612.223 139.04 618.103 129.08C623.983 119.12 631.903 111.38 641.863 105.86C651.943 100.22 662.983 97.4 674.983 97.4C686.983 97.4 697.963 100.22 707.923 105.86C717.883 111.38 725.743 119.12 731.503 129.08C737.383 139.04 740.323 150.26 740.323 162.74C740.323 175.22 737.383 186.44 731.503 196.4C725.743 206.36 717.823 214.16 707.743 219.8C697.783 225.44 686.863 228.26 674.983 228.26ZM674.983 191C682.903 191 689.023 188.48 693.343 183.44C697.663 178.28 699.823 171.38 699.823 162.74C699.823 153.98 697.663 147.08 693.343 142.04C689.023 136.88 682.903 134.3 674.983 134.3C666.943 134.3 660.763 136.88 656.443 142.04C652.123 147.08 649.963 153.98 649.963 162.74C649.963 171.38 652.123 178.28 656.443 183.44C660.763 188.48 666.943 191 674.983 191ZM854.818 99.56V131.24H820.978V227H781.018V131.24H747.538V99.56H854.818ZM927.756 228.26C915.756 228.26 904.716 225.44 894.636 219.8C884.676 214.16 876.756 206.36 870.876 196.4C864.996 186.44 862.056 175.22 862.056 162.74C862.056 150.26 864.996 139.04 870.876 129.08C876.756 119.12 884.676 111.38 894.636 105.86C904.716 100.22 915.756 97.4 927.756 97.4C939.756 97.4 950.736 100.22 960.696 105.86C970.656 111.38 978.516 119.12 984.276 129.08C990.156 139.04 993.096 150.26 993.096 162.74C993.096 175.22 990.156 186.44 984.276 196.4C978.516 206.36 970.596 214.16 960.516 219.8C950.556 225.44 939.636 228.26 927.756 228.26ZM927.756 191C935.676 191 941.796 188.48 946.116 183.44C950.436 178.28 952.596 171.38 952.596 162.74C952.596 153.98 950.436 147.08 946.116 142.04C941.796 136.88 935.676 134.3 927.756 134.3C919.716 134.3 913.536 136.88 909.216 142.04C904.896 147.08 902.736 153.98 902.736 162.74C902.736 171.38 904.896 178.28 909.216 183.44C913.536 188.48 919.716 191 927.756 191ZM1047.47 196.76H1085.99V227H1007.51V99.56H1047.47V196.76ZM1138.53 99.56V227H1098.57V99.56H1138.53ZM1218.67 228.26C1206.67 228.26 1195.63 225.44 1185.55 219.8C1175.59 214.16 1167.67 206.36 1161.79 196.4C1155.91 186.44 1152.97 175.22 1152.97 162.74C1152.97 150.26 1155.91 139.04 1161.79 129.08C1167.67 119.12 1175.59 111.38 1185.55 105.86C1195.63 100.22 1206.67 97.4 1218.67 97.4C1230.67 97.4 1241.65 100.22 1251.61 105.86C1261.57 111.38 1269.43 119.12 1275.19 129.08C1281.07 139.04 1284.01 150.26 1284.01 162.74C1284.01 175.22 1281.07 186.44 1275.19 196.4C1269.43 206.36 1261.51 214.16 1251.43 219.8C1241.47 225.44 1230.55 228.26 1218.67 228.26ZM1218.67 191C1226.59 191 1232.71 188.48 1237.03 183.44C1241.35 178.28 1243.51 171.38 1243.51 162.74C1243.51 153.98 1241.35 147.08 1237.03 142.04C1232.71 136.88 1226.59 134.3 1218.67 134.3C1210.63 134.3 1204.45 136.88 1200.13 142.04C1195.81 147.08 1193.65 153.98 1193.65 162.74C1193.65 171.38 1195.81 178.28 1200.13 183.44C1204.45 188.48 1210.63 191 1218.67 191ZM1388.43 99.56V131.24H1338.39V148.88H1374.39V178.94H1338.39V227H1298.43V99.56H1388.43ZM1441.92 99.56V227H1401.96V99.56H1441.92Z" fill="#E8FF00"/>
</g>
<path fill-rule="evenodd" clip-rule="evenodd" d="M604.901 258.603C605.279 258.801 605.577 259.065 605.691 259.001C607.648 257.906 609.562 256.738 611.524 255.652C613.251 254.695 614.842 253.53 616.533 252.52C617.442 251.975 618.41 251.527 619.334 251.003C620.018 250.614 620.635 249.924 621.35 249.816C622.361 249.663 622.658 248.718 623.52 248.378C624.908 247.832 626.125 246.86 627.43 246.096C629.537 244.862 631.664 243.663 633.768 242.425C634.989 241.708 636.316 241.133 637.226 239.922C636.661 240.012 636.12 240.18 635.645 240.458C634.226 241.286 632.84 242.171 631.426 243.008C630.741 243.414 630.012 243.746 629.318 244.138C628.573 244.559 627.846 245.01 627.111 245.449C626.376 245.887 625.655 246.353 624.903 246.758C623.339 247.603 621.769 248.435 620.364 249.54C620.159 249.702 619.92 249.82 619.695 249.957C618.518 250.677 617.107 251.012 616.153 252.106C616.027 252.25 615.854 252.428 615.687 252.448C614.2 252.622 613.048 253.573 611.916 254.345C610.743 255.144 609.188 255.473 608.423 256.844C607.626 256.709 607.266 257.612 606.699 257.672C605.958 257.751 605.588 258.171 604.901 258.603ZM625.178 254.54C626.482 254.019 627.755 253.398 629.094 252.994C634.117 251.482 639.156 250.02 644.2 248.583C646.534 247.917 648.769 246.898 651.23 246.665C651.986 246.594 652.722 246.256 653.449 245.989C654.169 245.725 654.981 246.106 655.695 245.37C656.111 244.941 657.107 245.101 657.827 244.936C659.027 244.662 660.253 244.39 661.411 244.056C664.333 243.216 667.427 243.016 670.216 241.706C670.342 241.646 670.506 241.553 670.616 241.588C671.581 241.901 672.345 241.227 673.213 241.077C674.08 240.928 674.951 240.782 675.807 240.578C677.551 240.161 679.268 239.572 681.034 239.316C682.204 239.146 683.293 238.738 684.433 238.541C687.176 238.065 689.914 237.595 692.629 236.953C693.684 236.704 694.762 236.3 695.818 236.268C697.795 236.208 699.65 235.587 701.578 235.321C704.259 234.952 706.89 234.217 709.572 233.857C712.098 233.518 714.604 233.075 717.122 232.703C719.371 232.373 721.625 232.082 723.877 231.773C725.796 231.511 727.717 231.254 729.634 230.979C729.934 230.935 730.22 230.803 730.535 230.704C730.433 230.518 730.397 230.408 730.369 230.409C729.315 230.485 728.232 230.446 727.217 230.69C726.232 230.927 725.133 230.229 724.259 231.097C722.14 231.393 720.02 231.68 717.903 231.986C715.647 232.314 713.39 232.628 711.144 233.01C709.272 233.328 707.428 233.889 705.547 234.067C702.859 234.321 700.242 234.921 697.595 235.371C695.378 235.747 693.205 236.4 690.986 236.76C688.304 237.195 685.635 237.661 683.002 238.333C681.742 238.654 680.479 239.064 679.195 239.178C677.418 239.336 675.754 239.946 674.012 240.226C672.66 240.442 671.343 240.869 669.995 241.109C669.76 241.151 669.44 240.728 669.033 240.424C668.971 241.103 668.396 241.643 667.825 241.467C666.658 241.107 665.73 241.819 664.676 241.9C664.259 241.932 663.888 242.48 663.465 242.53C661.636 242.746 659.825 243.031 658.081 243.626C657.517 243.818 657.031 244.283 656.462 244.401C655.494 244.603 654.306 244.335 653.546 244.806C652.629 245.374 651.523 245.21 650.693 245.888C650.498 246.048 650.046 245.853 649.736 245.924C649.392 246.004 648.945 246.416 648.768 246.309C648.089 245.898 647.44 246.176 647 246.494C646.419 246.914 645.748 247.387 645.172 247.271C644.27 247.088 643.946 247.989 643.176 247.978C642.239 247.963 641.338 248.346 640.424 248.543C639.444 248.754 638.556 249.363 637.59 249.682C635.181 250.477 632.75 251.207 630.328 251.963C629.319 252.278 628.302 252.571 627.303 252.915C626.447 253.21 625.667 253.643 625.178 254.54ZM633.684 240.082C632.8 239.184 631.954 239.272 631.222 239.506C630.562 239.717 630.061 240.435 629.228 240.089C628.839 240.971 627.865 240.367 627.341 240.822C626.694 241.385 625.975 240.717 625.336 241.029C625.323 241.632 625.323 241.632 623.619 242.153C622.513 242.492 622.513 242.492 621.448 242.198C621.209 242.506 620.967 242.816 620.696 243.165C620.592 242.89 620.522 242.702 620.329 242.188C620.197 242.817 620.127 243.156 620.034 243.597C619.493 243.335 618.676 243.594 618.192 242.797C618.145 242.722 617.466 243.032 616.968 243.201C616.96 242.306 616.951 241.49 616.941 240.578C618.099 239.783 619.376 239.083 620.806 238.625C622.244 238.164 623.612 237.484 625.051 237.031C626.355 236.619 627.71 236.364 629.052 236.078C630.329 235.805 631.478 234.998 632.858 235.154C634.828 233.707 637.348 234.488 639.472 233.502C640.58 232.988 641.94 233.047 643.192 233.243C643.714 233.324 644.201 233.627 644.704 233.829L646.049 236.074C646.104 236.191 646.163 236.307 646.216 236.426C646.996 238.172 647.031 238.211 645.719 239.397C644.901 240.138 643.958 240.74 643.053 241.418C642.633 241.225 642.203 241.026 641.625 240.761C641.679 241.057 641.766 241.235 641.726 241.377C641.454 242.338 641.086 243.228 639.896 243.337C639.463 244.482 638.144 244.453 637.399 245.226C636.682 245.97 635.788 246.543 634.969 247.187C634.763 247.349 634.543 247.495 634.31 247.661C634.613 248.383 635.191 248.261 635.829 248.058C638.179 247.311 640.537 246.588 642.889 245.847C644.843 245.232 646.827 244.765 648.857 244.478C649.274 244.419 649.639 244.048 650.058 243.938C651.519 243.552 652.99 243.2 654.465 242.867C655.872 242.55 657.147 241.761 658.674 241.826C659.27 241.852 659.874 241.374 660.49 241.328C661.02 241.289 661.418 241.076 661.883 240.914C662.96 240.537 664.123 240.293 665.261 240.255C665.836 240.235 666.394 239.331 666.994 240.155C667.596 239.879 668.179 239.546 668.803 239.337C670.815 238.664 672.895 238.3 674.993 237.998C676.277 237.814 677.532 237.436 678.8 237.144C681.336 236.561 683.863 235.928 686.412 235.408C689.793 234.717 693.188 234.091 696.584 233.478C699.498 232.953 702.41 232.37 705.347 232.017C709.666 231.499 713.915 230.561 718.248 230.086C721.621 229.717 725.011 229.317 728.356 228.787C731.861 228.233 735.392 228.015 738.893 227.505C741.168 227.174 743.496 227.232 745.79 227.009C747.762 226.818 749.745 226.824 751.713 226.605C751.956 226.577 752.207 226.618 752.464 226.627C752.504 227.814 751.649 227.899 750.943 228.08C750.282 228.247 749.595 228.308 748.433 228.495C750.092 229.076 751.255 228.679 752.388 228.543C753.016 228.467 753.456 228.464 753.864 229.122C753.606 229.31 753.351 229.495 753.07 229.7C753.55 230.122 754.078 230.586 754.67 231.108C754.27 231.431 753.881 231.597 753.851 231.811C753.818 232.055 754.107 232.342 754.268 232.634C753.843 232.974 753.041 232.808 752.857 233.582C752.83 233.694 752.424 233.837 752.408 233.814C751.784 232.939 751.292 234.112 750.636 233.942C750.246 233.841 749.458 233.535 749.034 234.288C748.98 234.385 748.224 233.957 747.949 234.091C747.608 234.259 747.425 234.723 746.952 234.326C746.851 234.241 746.613 234.138 746.592 234.165C745.653 235.353 744.484 234.356 743.446 234.519C742.905 234.603 742.239 234.342 741.864 234.995C741.07 234.448 740.644 236.047 739.918 235.38C739.218 234.737 738.615 236.282 737.932 235.38C737.886 235.319 737.189 235.775 736.778 235.955C736.286 236.171 735.643 235.129 735.23 236.131C734.65 236.04 734.022 236.059 733.501 235.832C732.696 235.482 732.199 235.644 731.808 236.401C731.73 236.551 731.485 236.712 731.324 236.707C730.87 236.689 730.398 236.473 729.975 236.553C729.545 236.633 728.923 237.258 728.803 237.155C727.877 236.364 727.371 237.69 726.528 237.484C726.34 237.224 726.112 236.908 725.787 236.459C724.505 237.714 722.629 237.311 721.237 238.287C720.848 238.56 720.364 238.622 719.87 238.283C718.864 237.594 717.944 237.62 717.207 238.744C717.078 238.941 716.679 239.187 716.546 239.122C715.231 238.483 714.288 239.983 712.983 239.676C712.332 239.524 711.591 240.376 710.814 239.753C710.762 239.712 710.517 239.933 710.352 240.011C710.047 240.157 709.654 240.214 709.442 240.442C708.841 241.084 708.351 239.886 707.725 240.417C707.329 240.753 706.773 240.945 706.258 241.084C705.682 241.24 705.047 241.189 704.482 241.367C703.854 241.564 703.316 241.414 702.709 241.336C702.216 241.274 701.507 242.163 701.136 242.017C700.14 241.623 699.535 242.351 698.752 242.505C697.888 242.676 697.02 242.827 696.158 243.007C695.569 243.13 695.007 243.536 694.372 243.079C694.292 243.021 693.993 243.341 693.775 243.388C692.933 243.569 692.189 244.35 691.207 243.803C691.081 243.732 690.799 243.969 690.579 244.029C688.658 244.559 686.736 245.081 684.815 245.605C683.957 244.893 683.372 245.829 682.662 245.976C681.25 246.268 679.854 246.635 678.449 246.958C678.331 246.986 678.189 246.943 678.064 246.91C676.179 246.424 676.179 246.423 674.448 246.941C673.889 246.502 673.371 245.835 672.735 245.687C672.297 245.586 671.694 246.206 671.275 246.789C671.905 246.739 672.537 246.689 673.69 246.599C672.952 247.195 672.286 247.124 672.151 247.409C671.861 248.02 671.466 247.612 671.131 247.698C668.713 248.321 666.312 249.01 663.889 249.61C663.258 249.765 662.724 250.71 661.939 249.927C660.994 250.434 659.649 250.126 659.052 251.344C659.024 251.401 658.974 251.478 658.923 251.489C657.526 251.78 656.128 252.064 654.73 252.349C654.118 251.814 653.531 252.247 652.961 252.425C650.577 253.169 648.174 253.855 645.889 254.904C645.189 255.226 644.38 255.765 643.523 255.094C643.423 255.016 643.098 255.13 642.941 255.243C642.521 255.548 642.181 256.049 641.722 256.192C641.262 256.336 640.617 255.95 640.194 256.13C639.101 256.595 638.044 257.179 637.052 257.835C636.126 258.447 634.568 258.824 633.386 258.502L632.784 259.65C631.365 260.148 629.85 260.408 628.425 260.986C626.994 261.566 625.502 262.077 623.989 262.352C622.851 262.558 621.775 262.656 620.998 263.633C620.889 263.77 620.605 263.763 620.406 263.833C617.717 264.776 615.023 265.704 612.343 266.669C610.6 267.296 608.934 268.123 607.14 268.618C606.918 268.679 606.756 268.958 606.579 269.127L605.402 268.51C605.141 268.697 604.817 268.84 604.622 269.086C604.05 269.8 603.435 270.15 602.429 270.117C601.194 270.076 601.191 270.224 600.599 269.168C600.503 268.998 600.378 268.844 600.265 268.683C599.879 268.129 598.993 269.002 598.699 268.119C598.476 267.449 597.975 267.499 597.354 267.542C596.735 267.585 596.606 267.278 596.17 266C596.418 265.643 596.617 265.358 596.817 265.073C596.587 264.993 596.355 264.844 596.128 264.851C595.856 264.859 595.589 265.001 595.311 265.088C595.274 264.98 595.181 264.857 595.207 264.767C595.433 264 595.51 263.107 595.972 262.517C596.382 261.992 597.271 261.871 597.867 261.455C599.967 259.995 602.057 258.524 604.291 257.268C605.502 256.588 606.549 255.641 607.899 255.176C608.292 255.04 608.525 254.439 608.92 254.304C609.307 254.171 609.842 254.5 610.028 253.818C610.069 253.669 610.31 253.554 610.482 253.464C612.002 252.667 613.415 251.672 614.923 250.88C616.103 250.26 617.212 249.548 618.333 248.85C619.788 247.945 621.437 247.363 622.732 246.193C622.779 246.15 622.863 246.141 622.931 246.129C623.503 246.032 624.075 245.94 624.648 245.846C624.601 245.046 625.21 244.873 625.773 244.599C626.299 244.342 626.739 243.887 627.278 243.674C628.901 243.033 630.279 241.97 631.802 241.161C632.38 240.855 632.937 240.511 633.684 240.082Z" fill="white"/>
<path fill-rule="evenodd" clip-rule="evenodd" d="M711.117 260.418C712.889 259.918 714.636 259.172 716.439 259.001C717.657 258.887 718.8 258.507 719.994 258.35C723.063 257.947 726.118 257.346 729.154 256.747C731.747 256.236 734.367 255.889 736.956 255.359C739.513 254.837 742.109 254.414 744.707 254.236C745.638 254.172 746.546 253.945 747.46 253.853C749.452 253.651 751.456 253.392 753.435 253.013C754.751 252.76 756.126 252.891 757.416 252.405C757.702 252.298 758.107 252.292 758.382 252.412C760.333 253.266 762.197 252.275 764.092 252.151C765.563 252.055 767.009 251.623 768.478 251.467C769.24 251.386 770.064 251.471 770.796 251.693C771.227 251.824 771.532 252.371 771.937 252.774C771.471 252.999 771.075 253.204 770.667 253.379C770.459 253.469 770.229 253.507 770.008 253.567L767.978 253.964C767.522 254.383 767.021 254.528 766.501 254.109C765.929 253.647 765.797 254.993 765.114 254.381C764.638 253.954 764.197 254.438 763.711 254.721C763.172 255.033 762.426 255.083 761.77 255.082C759.871 255.081 758.059 255.636 756.22 255.961C755.562 256.078 754.758 255.119 754.255 256.193C753.529 255.888 752.74 256.69 752.303 256.438C751.207 255.806 750.556 257.006 749.518 256.821C748.617 256.66 747.59 257.306 746.54 257.382C745.071 257.49 743.625 257.881 742.158 258.056C740.085 258.304 738.016 258.529 735.988 259.063C734.875 259.356 733.731 259.531 732.597 259.737C731.931 259.857 731.26 259.935 730.658 260.022C730.515 259.904 730.28 259.618 730.198 259.657C727.222 261.041 724.009 261.306 720.821 261.683C719.599 261.827 718.505 262.417 717.228 262.486C715.811 262.564 714.416 263.081 713.018 263.434C712.161 263.65 711.365 264.144 710.443 263.455C710.095 263.194 709.619 263.517 709.234 263.926C708.759 264.431 708.05 264.702 707.294 264.586C706.304 264.435 705.437 264.678 704.515 265.097C703.405 265.603 702.204 265.919 700.932 265.979C699.781 266.034 698.777 266.943 697.527 266.71C697.343 266.676 697.128 266.83 696.924 266.885C694.648 267.493 692.388 268.18 690.09 268.687C686.101 269.566 682.176 270.67 678.23 271.706C676.293 272.215 674.364 272.765 672.424 273.27C671.778 273.437 670.968 273.293 670.473 273.637C669.872 274.054 669.336 274.116 668.664 274.194C667.982 274.273 667.349 274.456 666.602 273.781C666.734 274.26 666.77 274.392 666.835 274.629C665.844 274.778 664.864 274.927 663.87 275.077C663.902 275.206 663.95 275.397 663.989 275.553C663.479 275.625 662.948 275.793 662.435 275.748C661.919 275.702 661.421 275.446 660.583 275.175C660.926 275.707 661.143 276.042 661.423 276.476C660.439 276.468 659.736 276.463 658.973 276.457C658.869 276.156 658.74 275.779 658.608 275.401C658.339 275.485 658.07 275.569 657.761 275.666C657.958 275.924 658.144 276.171 658.363 276.459C658.209 276.602 658.083 276.766 657.918 276.862C657.573 277.065 657.165 277.178 656.857 277.422C656.212 277.937 656.233 277.951 654.895 277.825C654.701 277.807 654.469 277.902 654.295 278.009C653.662 278.399 652.853 278.664 652.475 278.569C652.456 278.784 652.504 279.137 652.404 279.187C652.153 279.309 651.777 279.205 651.554 279.35C650.609 279.962 649.771 280.902 648.481 280.129C647.81 280.443 647.162 280.937 646.463 281.023C645.67 281.121 645.516 282.245 645.095 282.07C644.139 281.672 644.321 282.644 643.898 282.813C642.875 283.141 642.978 281.189 641.753 281.757C642.776 280.43 644.053 279.408 645.589 278.873C647.66 278.152 649.624 277.209 651.637 276.37C653.644 275.534 655.794 275.04 657.872 274.371C658.524 274.161 659.151 273.874 659.79 273.622C660.677 273.737 661.529 273.606 662.366 273.295C662.891 273.099 663.43 272.853 663.975 272.813C664.568 272.771 664.738 271.958 665.571 272.223C666.121 272.397 666.882 271.838 667.563 271.677C668.213 271.525 668.914 271.551 669.536 271.337C670.193 271.111 670.766 270.744 671.521 270.706C672.201 270.673 672.941 270.446 673.518 270.087C674.459 269.502 675.534 269.4 676.53 269.256C677.343 269.138 678.118 268.941 678.905 268.752C679.578 268.59 680.204 268.261 680.855 268.048C681.552 267.82 682.15 267.832 682.827 267.777C683.672 267.707 684.472 267.155 685.308 266.858C685.857 266.663 686.527 266.298 686.979 266.461C687.602 266.685 688.047 266.4 688.57 266.385C689.254 266.367 689.591 265.468 690.35 265.767C690.957 264.931 691.795 265.741 692.5 265.46C693.514 265.057 694.559 264.733 695.607 264.369C695.638 264.493 695.671 264.626 695.723 264.841C696.634 264.459 697.519 264.086 698.407 263.721C698.57 263.653 698.823 263.526 698.91 263.591C699.537 264.066 700.101 263.648 700.687 263.52C701.41 263.363 702.085 263.123 702.87 263.087C704.146 263.028 705.447 262.686 706.653 262.239C707.573 261.898 708.426 261.667 709.422 261.689C710.169 261.706 710.933 261.348 711.117 260.418Z" fill="white"/>
<path fill-rule="evenodd" clip-rule="evenodd" d="M711.117 260.418C710.933 261.348 710.169 261.706 709.422 261.689C708.426 261.667 707.573 261.898 706.653 262.239C705.447 262.686 704.146 263.028 702.87 263.087C702.085 263.123 701.41 263.363 700.687 263.52C700.101 263.648 699.537 264.066 698.91 263.591C698.823 263.526 698.57 263.653 698.407 263.721C697.519 264.086 696.634 264.459 695.723 264.841C695.671 264.626 695.638 264.493 695.607 264.369C694.559 264.733 693.514 265.057 692.5 265.46C691.795 265.741 690.957 264.931 690.35 265.767C689.591 265.468 689.254 266.367 688.57 266.385C688.047 266.4 687.602 266.685 686.979 266.461C686.527 266.298 685.857 266.663 685.308 266.858C684.472 267.155 683.672 267.707 682.827 267.777C682.15 267.832 681.552 267.819 680.855 268.048C680.205 268.261 679.578 268.59 678.905 268.752C678.118 268.941 677.343 269.138 676.53 269.256C675.534 269.4 674.459 269.502 673.518 270.087C672.941 270.446 672.201 270.673 671.521 270.706C670.766 270.744 670.193 271.111 669.536 271.337C668.914 271.551 668.213 271.525 667.564 271.677C666.882 271.838 666.121 272.397 665.571 272.223C664.738 271.958 664.568 272.771 663.975 272.813C663.43 272.853 662.891 273.099 662.366 273.294C661.529 273.606 660.677 273.737 659.79 273.622C660.021 273.29 660.184 272.787 660.497 272.661C661.038 272.444 661.696 272.535 662.262 272.358C662.828 272.182 663.317 271.761 663.884 271.585C664.45 271.408 665.125 271.528 665.652 271.294C666.947 270.72 668.335 270.501 669.665 270.073C671.073 269.62 672.478 269.156 673.902 268.755C676.373 268.06 678.828 267.252 681.345 266.796C682.993 266.498 684.529 265.837 686.152 265.582C689.185 265.104 692.089 264.079 695.134 263.652C696.831 263.414 698.48 262.84 700.154 262.434C702.654 261.826 705.167 261.292 707.729 260.982C708.554 260.882 709.336 260.464 710.157 260.27C710.448 260.2 710.796 260.362 711.117 260.418Z" fill="white"/>
<path fill-rule="evenodd" clip-rule="evenodd" d="M1200.1 66.1901C1199.92 66.5787 1199.83 66.7629 1199.71 67.0149L1199.4 67.1247C1199.13 67.6335 1198.88 68.1277 1198.61 68.6145C1198.38 69.0253 1198.12 69.4167 1197.91 69.8378C1197.69 70.307 1197.41 70.7457 1197.2 71.2315C1197.02 71.6699 1196.94 72.1934 1196.6 72.5451C1196.21 72.9532 1196.25 73.5277 1195.95 73.9708C1195.68 74.3799 1195.48 74.8401 1195.25 75.2768C1195.26 75.2816 1195.33 75.3134 1195.41 75.3536C1194.89 76.7446 1194.34 78.1295 1194.23 79.718C1194.2 79.7446 1194.1 79.8348 1193.97 79.9455C1194.06 80.0012 1194.14 80.0521 1194.22 80.1043C1194.1 80.9533 1194.03 81.8255 1193.88 82.6671C1193.7 83.7034 1193.76 84.7698 1193.42 85.7897C1193.24 86.3019 1193.23 86.9022 1193.3 87.4442C1193.34 87.7761 1193.12 87.786 1192.99 87.9574C1193.09 88.037 1193.19 88.1171 1193.33 88.2237C1193.23 88.8967 1193.13 89.5894 1193.02 90.3031C1192.86 90.234 1192.76 90.1919 1192.6 90.1259C1192.41 90.4029 1191.98 90.5429 1192.11 91.2391C1191.88 90.9568 1191.74 90.7821 1191.57 90.5671C1191.39 90.9717 1191.33 91.1305 1191.24 91.3308C1191.36 91.4247 1191.46 91.5123 1191.58 91.6089C1191.55 91.8072 1191.51 92.0349 1191.47 92.2543C1191.38 92.2716 1191.27 92.3205 1191.24 92.292C1191.01 92.0779 1190.8 91.8481 1190.58 91.625C1190.05 91.7115 1190.27 92.189 1190.13 92.4782C1190.06 92.4458 1189.99 92.4132 1189.9 92.3685C1189.8 92.4762 1189.69 92.5908 1189.57 92.7114C1189.3 92.5178 1189.04 92.3354 1188.68 92.0763C1188.3 91.2189 1187.95 90.1953 1187.41 89.2797C1187.13 88.8064 1187.01 88.2149 1186.65 87.8612C1186.22 87.4215 1186.27 86.8077 1185.92 86.4115C1185.54 85.9742 1185.48 85.3951 1185.17 84.9818C1184.82 84.5281 1184.74 83.9588 1184.42 83.5449C1183.67 82.5599 1183.29 81.3361 1182.39 80.4588C1182.35 79.9396 1181.77 79.6132 1181.89 79.0389C1181.4 78.6586 1181.13 78.1258 1180.82 77.6131C1180.38 76.8891 1179.72 76.3207 1179.41 75.4988C1179.33 75.2665 1179.06 75.1004 1178.77 74.781C1178.83 75.8816 1178.89 76.8262 1178.96 77.9815C1178.9 78.067 1178.73 78.3509 1178.55 78.6372C1178.75 78.9156 1178.89 79.1114 1179.04 79.3205C1179.01 80.4106 1179.39 81.5839 1178.9 82.708C1179.41 82.8908 1179.27 83.4614 1179.5 83.7683C1179.33 85.1089 1179.7 86.3449 1179.83 87.7517C1179.82 87.7707 1179.73 87.9361 1179.65 88.0934C1179.64 88.615 1180.04 89.0173 1179.91 89.5913C1179.82 90.0077 1179.95 90.5398 1180.15 90.9434C1180.39 91.4361 1180.42 91.982 1180.36 92.4253C1180.29 92.9757 1180.6 93.3421 1180.64 93.8613C1180.58 93.9744 1180.49 94.1402 1180.37 94.3699C1180.85 95.3901 1181.02 96.5308 1181.33 97.6665C1181.23 97.8187 1181.13 97.9705 1181 98.1667L1181.39 99.258C1181.18 99.1789 1181.09 99.142 1180.89 99.0653C1181.13 99.5926 1180.95 100.008 1180.65 100.443C1180.53 100.422 1180.39 100.397 1180.28 100.377C1179.92 101.108 1179.55 101.858 1179.21 102.543C1178.9 102.563 1178.66 102.577 1178.36 102.596C1178.29 102.533 1178.17 102.413 1178.05 102.293L1177.8 102.382C1177.81 102.507 1177.81 102.644 1177.81 102.853C1177.2 103.122 1176.65 102.898 1176.12 102.612C1175.86 102.147 1175.86 102.147 1175.12 102.029C1175.33 102.213 1175.41 102.283 1175.54 102.391C1175.45 102.45 1175.35 102.517 1175.21 102.609C1175.09 102.384 1174.99 102.198 1174.87 101.968C1174.79 102.089 1174.74 102.169 1174.71 102.229C1174.03 102.031 1173.35 101.832 1172.6 101.61L1172.43 101.136C1172.34 101.286 1172.29 101.374 1172.22 101.493C1172.13 101.383 1172.05 101.28 1171.95 101.144L1171.5 101.305C1171.31 101.215 1171.17 101.151 1171.04 101.086C1171.15 100.786 1171.05 100.397 1171.42 100.203C1170.82 100.031 1170.77 100.542 1170.53 100.942C1170.44 100.738 1170.36 100.579 1170.29 100.411C1169.76 100.302 1169.25 100.084 1168.65 100.28C1168.14 100.443 1167.72 100.033 1167.33 99.6066C1167.25 99.7268 1167.2 99.7995 1167.11 99.9448C1167 99.7676 1166.91 99.6102 1166.79 99.4096C1166.74 99.4345 1166.67 99.4715 1166.46 99.5807C1166.11 99.4813 1165.63 99.2425 1165.14 99.2293C1164.44 99.2105 1164 98.6142 1163.29 98.6068C1162.66 98.6003 1162.04 98.3957 1161.42 98.1387C1160.59 97.7881 1159.67 97.6367 1158.72 97.3829L1158.93 97.9668C1159.04 97.9784 1159.21 97.9952 1159.45 98.0186C1159.4 98.2119 1159.37 98.381 1159.32 98.5832C1159.57 98.7975 1159.82 99.0526 1160.12 99.2393C1160.36 99.3959 1160.51 99.7693 1160.91 99.6282C1160.94 100.069 1161.32 100.18 1161.64 100.334C1161.59 100.431 1161.56 100.498 1161.53 100.551C1162.69 101.12 1163.6 101.98 1164.47 102.913C1164.84 103.082 1165.22 103.25 1165.59 103.417L1165.72 103.77C1166.22 104.121 1166.66 104.426 1167.16 104.772C1166.98 104.972 1166.86 105.114 1166.7 105.297C1166.99 105.54 1167.25 105.768 1167.5 105.98C1167.75 105.814 1167.97 105.671 1168.18 105.529C1168.83 106.013 1169.43 106.457 1170.19 107.025C1169.74 107.078 1169.56 106.902 1169.32 106.818C1169.21 107.33 1169.7 107.263 1169.9 107.447C1169.87 107.578 1169.83 107.708 1169.74 107.987C1169.96 107.968 1170.17 107.95 1170.37 107.932C1170.34 108.005 1170.3 108.078 1170.27 108.151C1170.38 108.022 1170.48 107.894 1170.6 107.753C1170.84 107.986 1171.04 108.178 1171.24 108.368C1171.19 108.502 1171.15 108.603 1171.1 108.713C1171.19 108.76 1171.29 108.81 1171.41 108.875C1171.68 108.718 1171.97 108.552 1172.23 108.399C1173.04 109.076 1173.8 109.721 1174.57 110.365C1174.55 110.404 1174.54 110.444 1174.52 110.482C1174.41 110.452 1174.31 110.423 1174.05 110.349C1174.34 110.851 1174.58 111.266 1174.86 111.747C1174.5 112.013 1174.16 112.258 1173.67 112.614C1173.66 112.633 1173.59 112.846 1173.5 113.115C1172.42 112.291 1171.25 111.758 1170.14 111.154C1168.61 110.318 1167.27 109.216 1165.8 108.292C1164.27 107.331 1162.87 106.166 1161.41 105.094C1160.58 104.484 1159.73 103.899 1158.91 103.273C1157.76 102.393 1156.6 101.529 1155.52 100.572C1155.04 100.15 1154.44 99.9248 1154.02 99.3925C1153.66 98.9355 1153.06 98.6633 1152.57 98.3148C1151.3 97.4246 1150.07 96.4982 1148.7 95.7516C1147.81 95.2659 1146.99 94.6628 1146.01 94.0319L1145.56 92.7606C1145.86 92.6413 1146.15 92.4035 1146.61 92.6224C1146.54 92.3314 1146.48 92.0597 1146.42 91.8029C1147.11 90.9842 1148.02 90.5628 1149.16 90.3098C1149.27 90.3843 1149.48 90.5334 1149.87 90.8059C1149.91 90.8528 1150.12 91.0854 1150.37 91.365C1150.66 91.1263 1150.88 90.9471 1151.08 90.7781C1151.56 90.925 1152.06 91.0392 1152.52 91.2271C1152.92 91.3869 1153.47 91.1693 1153.64 91.8617C1153.74 91.6493 1153.77 91.5812 1153.83 91.4547C1154.2 91.8807 1154.93 91.4806 1155.18 92.1525C1155.37 92.1085 1155.55 92.0689 1155.75 92.0219C1155.81 92.1025 1155.86 92.191 1155.93 92.2892C1157.36 92.321 1158.68 92.8755 1160.05 93.3397C1160.13 93.312 1160.25 93.2257 1160.34 93.2448C1160.73 93.3226 1161.23 93.3158 1161.45 93.5583C1161.8 93.9526 1162.48 93.6834 1162.65 94.3087C1162.91 94.232 1163.16 94.1608 1163.42 94.0843C1163.5 94.1872 1163.59 94.2942 1163.7 94.4249C1163.83 94.3873 1163.97 94.3458 1164.18 94.2826C1164.51 94.45 1164.89 94.6446 1165.35 94.8748C1165.15 95.0724 1165.03 95.1888 1164.87 95.35C1165.2 95.4338 1165.5 95.5093 1165.8 95.5847C1165.88 95.481 1165.96 95.3776 1166.09 95.2121C1166.25 95.3456 1166.38 95.5055 1166.55 95.576C1166.7 95.6377 1166.89 95.5986 1167.05 95.6041C1167.12 95.51 1167.2 95.396 1167.34 95.2025C1167.51 95.3423 1167.65 95.4623 1167.89 95.6635C1167.9 95.7361 1167.91 95.9749 1167.93 96.2464L1168.36 96.0932C1168.69 96.387 1168.91 96.5949 1169.41 96.5282C1170.27 96.4146 1171.14 96.6639 1172 96.7835C1172.14 96.8016 1172.24 96.9983 1172.36 97.1114C1172.42 97.0083 1172.47 96.9229 1172.47 96.9314C1172.92 97.1058 1173.37 97.2088 1173.74 97.438C1174.11 97.6707 1174.41 98.0282 1174.83 98.4079C1175.1 98.4201 1175.08 98.1744 1174.75 97.6393C1175.19 97.9056 1175.33 97.9948 1175.51 98.1035C1175.49 98.2607 1175.47 98.4225 1175.43 98.7305C1175.68 98.5111 1175.85 98.3639 1176.05 98.1975C1176.13 98.2252 1176.24 98.2562 1176.4 98.3076C1176.46 98.175 1176.62 97.9756 1176.57 97.8808C1176.34 97.4171 1176.44 96.9689 1176.51 96.5455C1176.03 95.8391 1176.21 95.0033 1176.04 94.2512C1175.84 93.4235 1175.69 92.5721 1175.66 91.7261C1175.63 90.916 1175.63 90.0867 1175.43 89.3233C1175.22 88.5129 1175.25 87.6948 1175.11 86.8876C1174.96 86.0648 1174.93 85.2133 1174.92 84.3739C1174.92 83.5649 1174.73 82.7808 1174.74 81.9633C1174.75 81.1325 1174.7 80.2727 1174.57 79.4517C1174.44 78.6378 1174.55 77.8387 1174.47 77.0353C1174.39 76.235 1174.35 75.4295 1174.33 74.6252C1174.31 73.7903 1174.35 72.9543 1174.35 72.1188C1174.35 71.3157 1174.33 70.5123 1174.32 69.6412C1174.45 69.3867 1174.61 69.0505 1174.76 68.7188C1174.85 68.7552 1174.95 68.7959 1175.05 68.8333C1175.51 68.7043 1175.37 68.3143 1175.41 68.0596C1175.84 67.8128 1176.24 67.5814 1176.67 67.3315C1176.73 67.354 1176.83 67.3977 1176.92 67.4384C1177.3 66.7434 1177.91 66.9535 1178.44 67.1205C1178.97 67.2897 1179.46 67.5898 1180.01 67.8492C1180.52 68.8235 1181.67 69.4181 1181.77 70.6996C1181.93 70.6762 1182.04 70.6615 1182.21 70.6369C1182.54 71.2293 1182.89 71.8561 1183.28 72.5656C1183.3 72.5643 1183.44 72.5576 1183.54 72.5527C1183.91 73.0854 1184.29 73.5939 1184.63 74.1239C1184.77 74.3323 1184.94 74.6101 1184.9 74.8195C1184.8 75.3516 1184.93 75.7186 1185.34 76.0669C1185.53 76.2269 1185.59 76.5415 1185.85 76.7259L1185.55 75.891C1185.7 75.9061 1185.8 75.9002 1185.81 75.9197C1185.95 76.4951 1186.35 76.9338 1186.69 77.3749C1186.98 77.7463 1187.23 78.1937 1187.16 78.5612C1187.08 79.0379 1187.37 79.3208 1187.38 79.9067C1187.54 79.6713 1187.59 79.603 1187.64 79.5337C1188.27 80.0208 1188.48 80.2441 1188.41 80.8268C1188.35 81.2929 1188.62 81.5689 1188.84 81.9072C1188.77 81.6132 1188.71 81.3193 1188.59 80.8138C1188.98 81.4503 1189.25 81.8974 1189.64 82.5282C1189.8 80.5761 1190.41 78.9386 1190.84 77.255C1191.27 75.54 1191.63 74.6864 1192.41 73.4466C1192.55 73.2213 1192.55 72.9081 1192.68 72.6687C1192.9 72.2546 1193.2 71.8833 1193.41 71.4618C1193.59 71.0748 1193.63 70.6129 1193.84 70.24C1194.38 69.2535 1195.09 68.3622 1195.57 67.3339C1195.62 67.2332 1195.83 67.208 1195.98 67.1413C1196.02 66.9575 1196.01 66.7165 1196.12 66.5633C1196.65 65.8145 1197.17 65.0476 1197.79 64.3697C1198.28 63.831 1198.73 63.253 1199.27 62.7441C1199.81 62.241 1200.45 61.9649 1201.01 61.5624C1201.6 61.1462 1202.36 61.0756 1203.16 61.1503C1202.78 62.1313 1203.85 62.5476 1204.07 63.3217C1203.97 62.9551 1203.87 62.5881 1203.77 62.2212C1203.83 62.2046 1203.89 62.1882 1203.95 62.1716L1204.2 62.8761C1204.27 63.0893 1204.35 63.3036 1204.43 63.5148C1204.52 63.7513 1204.54 64.04 1204.86 64.1048C1204.6 64.3482 1205.05 64.4738 1204.96 64.6564C1204.8 64.9842 1205.37 64.9102 1205.24 65.2365C1205.17 65.4168 1205.22 65.6568 1205.27 65.8583C1205.32 66.1075 1205.43 66.3444 1205.51 66.5642C1205.35 66.6892 1205.24 66.7763 1205.07 66.9139C1205.28 66.912 1205.42 66.9109 1205.6 66.9087C1205.65 67.018 1205.71 67.1469 1205.81 67.3581C1205.68 67.6351 1205.52 67.9635 1205.38 68.2585C1205.46 68.4434 1205.51 68.577 1205.56 68.6991C1205.74 68.7006 1205.87 68.702 1206.07 68.7034C1205.92 68.8535 1205.8 68.9684 1205.69 69.0837L1205.77 69.3171C1205.93 69.333 1206.1 69.3502 1206.29 69.3687C1206.31 70.0518 1206.22 70.7236 1206.48 71.3869C1206.59 71.6873 1206.48 72.0743 1206.47 72.4599C1206.46 72.4558 1206.52 72.4921 1206.61 72.5476C1206.65 73.1344 1206.7 73.7425 1206.76 74.4917C1206.49 74.3277 1206.31 74.2181 1206.15 74.1163C1206.22 74.4728 1206.33 74.6883 1206.58 74.9901C1206.57 75.0242 1206.57 75.0597 1206.55 75.0929C1206.52 75.1617 1206.49 75.2291 1206.45 75.3086C1206.52 75.3377 1206.59 75.3651 1206.65 75.3961C1206.69 75.4113 1206.72 75.4333 1206.75 75.454C1206.76 75.7667 1206.77 76.0816 1206.78 76.4953L1205.84 76.8278C1205.83 76.8841 1205.83 76.9403 1205.82 76.9969C1205.99 77.0368 1206.15 77.0761 1206.39 77.133C1206.45 77.0635 1206.56 76.9403 1206.77 76.7063C1206.82 77.2422 1206.86 77.6794 1206.91 78.1041C1206.79 78.1783 1206.7 78.2338 1206.6 78.2918C1207.16 78.6993 1207.01 79.1984 1206.84 79.7099C1206.78 79.873 1206.76 80.0556 1206.77 80.2273C1206.78 80.6126 1206.83 80.9969 1206.86 81.4603C1206.85 81.4682 1206.77 81.5295 1206.59 81.6566C1206.67 81.8494 1206.77 82.0806 1206.93 82.4481C1206.96 82.3696 1206.9 82.4608 1206.9 82.5512C1206.9 83.2834 1206.99 84.0141 1206.94 84.7475C1206.93 84.8167 1206.98 84.8879 1206.99 84.9597C1207.03 85.4273 1206.55 85.8163 1206.77 86.3048C1206.97 86.7361 1206.71 87.1391 1206.73 87.559C1206.74 88.0105 1206.71 88.4634 1206.7 88.9152C1206.69 89.0546 1206.63 89.1955 1206.65 89.3298C1206.67 89.4757 1206.74 89.6145 1206.82 89.821C1206.72 89.9667 1206.6 90.154 1206.51 90.2923L1206.76 91.0143C1206.47 91.6 1206.16 92.1875 1206.46 92.876C1206.49 92.9372 1206.51 93.0315 1206.48 93.0818C1206.01 93.9336 1206.35 94.8902 1206.11 95.7885C1205.89 96.6547 1205.96 97.5916 1205.81 98.4824C1205.61 99.6625 1205.32 100.828 1205.07 101.998C1205.05 102.106 1205 102.222 1204.92 102.302C1204.25 103.054 1203.56 103.798 1202.94 104.474C1202.38 104.559 1201.92 104.628 1201.33 104.717C1201.17 104.584 1200.89 104.364 1200.63 104.15C1200.65 103.502 1200.63 102.874 1200.69 102.251C1200.75 101.626 1200.83 100.995 1200.99 100.387C1201.32 99.0551 1201.35 97.6829 1201.58 96.3409C1201.72 95.5467 1201.62 94.7096 1202 93.958C1201.89 92.5892 1202.15 91.2483 1202.26 89.895C1202.3 89.3099 1202.44 88.7251 1202.39 88.1245C1202.34 87.5711 1202.38 87.0109 1202.38 86.4537C1202.39 84.7118 1202.4 82.9706 1202.39 81.2289C1202.39 80.322 1202.36 79.414 1202.31 78.5081C1202.27 77.5958 1202.12 76.6726 1202.11 75.7777C1202.1 74.2094 1201.66 72.7121 1201.59 71.159C1201.56 70.339 1201.24 69.5252 1200.99 68.724C1200.75 67.9433 1200.45 67.1819 1200.1 66.1901Z" fill="white"/>
</g>
<defs>
<filter id="filter0_f_14_2" x="58" y="-294" width="552" height="485" filterUnits="userSpaceOnUse" color-interpolation-filters="sRGB">
<feFlood flood-opacity="0" result="BackgroundImageFix"/>
<feBlend mode="normal" in="SourceGraphic" in2="BackgroundImageFix" result="shape"/>
<feGaussianBlur stdDeviation="80" result="effect1_foregroundBlur_14_2"/>
</filter>
<filter id="filter1_f_14_2" x="197" y="-322" width="601" height="520" filterUnits="userSpaceOnUse" color-interpolation-filters="sRGB">
<feFlood flood-opacity="0" result="BackgroundImageFix"/>
<feBlend mode="normal" in="SourceGraphic" in2="BackgroundImageFix" result="shape"/>
<feGaussianBlur stdDeviation="80" result="effect1_foregroundBlur_14_2"/>
</filter>
<filter id="filter2_f_14_2" x="377" y="-300" width="521" height="440" filterUnits="userSpaceOnUse" color-interpolation-filters="sRGB">
<feFlood flood-opacity="0" result="BackgroundImageFix"/>
<feBlend mode="normal" in="SourceGraphic" in2="BackgroundImageFix" result="shape"/>
<feGaussianBlur stdDeviation="60" result="effect1_foregroundBlur_14_2"/>
</filter>
<filter id="filter3_f_14_2" x="-14" y="96" width="1461" height="140" filterUnits="userSpaceOnUse" color-interpolation-filters="sRGB">
<feFlood flood-opacity="0" result="BackgroundImageFix"/>
<feBlend mode="normal" in="SourceGraphic" in2="BackgroundImageFix" result="shape"/>
<feGaussianBlur stdDeviation="2.5" result="effect1_foregroundBlur_14_2"/>
</filter>
</defs>
</svg>
