<svg width="222" height="120" viewBox="0 0 222 120" fill="none" xmlns="http://www.w3.org/2000/svg">
<mask id="mask0_303_11" style="mask-type:alpha" maskUnits="userSpaceOnUse" x="0" y="0" width="222" height="120">
<rect width="222" height="120" rx="2" fill="#1F1D2B"/>
</mask>
<g mask="url(#mask0_303_11)">
<rect width="222" height="120" rx="2" fill="#1F1D2B"/>
<circle cx="197" cy="99" r="50" fill="#EC4F3C" fill-opacity="0.8"/>
<circle cx="197" cy="99" r="35" fill="#EC4F3C"/>
<path d="M92.72 54.768V66H89.984V61.376H85.728V66H82.992V54.768H85.728V59.168H89.984V54.768H92.72ZM103.075 54.768V56.96H100.099V66H97.3631V56.96H94.3871V54.768H103.075ZM117.468 54.768V66H114.732V59.264L112.22 66H110.012L107.484 59.248V66H104.748V54.768H107.98L111.132 62.544L114.252 54.768H117.468ZM122.472 63.888H126.056V66H119.736V54.768H122.472V63.888ZM139.303 56.704H134.311V58.912C134.525 58.6773 134.823 58.4853 135.207 58.336C135.591 58.1867 136.007 58.112 136.455 58.112C137.255 58.112 137.917 58.2933 138.439 58.656C138.973 59.0187 139.362 59.488 139.607 60.064C139.853 60.64 139.975 61.264 139.975 61.936C139.975 63.184 139.623 64.176 138.919 64.912C138.215 65.6373 137.223 66 135.943 66C135.09 66 134.349 65.856 133.719 65.568C133.09 65.2693 132.605 64.8587 132.263 64.336C131.922 63.8133 131.735 63.2107 131.703 62.528H134.375C134.439 62.8587 134.594 63.136 134.839 63.36C135.085 63.5733 135.421 63.68 135.847 63.68C136.349 63.68 136.722 63.52 136.967 63.2C137.213 62.88 137.335 62.4533 137.335 61.92C137.335 61.3973 137.207 60.9973 136.951 60.72C136.695 60.4427 136.322 60.304 135.831 60.304C135.469 60.304 135.17 60.3947 134.935 60.576C134.701 60.7467 134.546 60.976 134.471 61.264H131.831V54.304H139.303V56.704Z" fill="white"/>
</g>
</svg>
