<svg width="222" height="120" viewBox="0 0 222 120" fill="none" xmlns="http://www.w3.org/2000/svg">
<mask id="mask0_303_120" style="mask-type:alpha" maskUnits="userSpaceOnUse" x="0" y="0" width="222" height="120">
<rect width="222" height="120" rx="2" fill="#1F1D2B"/>
</mask>
<g mask="url(#mask0_303_120)">
<rect width="222" height="120" rx="2" fill="#1F1D2B"/>
<g filter="url(#filter0_f_303_120)">
<path d="M221.838 45.307C238.004 41.8641 255.296 58.9288 260.46 83.4222C265.625 107.916 256.706 130.563 240.54 134.005C224.374 137.448 207.082 120.384 201.917 95.8902C196.753 71.3968 205.672 48.75 221.838 45.307Z" fill="#F55455"/>
<path d="M185.328 91.3208C201.494 87.8778 218.786 104.943 223.95 129.436C229.115 153.929 220.196 176.576 204.03 180.019C187.863 183.462 170.572 166.397 165.407 141.904C160.243 117.411 169.161 94.7637 185.328 91.3208Z" fill="#693DDC"/>
</g>
<path d="M6.26191 -4V135M17.0556 -4V135M25.9603 -4V135M34.8651 -4V135M43.7698 -4V135M52.6746 -4V135M61.5794 -4V135M70.4841 -4V135M79.3889 -4V135M88.2937 -4V135M97.1984 -4V135M106.103 -4V135M115.008 -4V135M123.913 -4V135M132.817 -4V135M141.722 -4V135M150.627 -4V135M159.532 -4V135M168.437 -4V135M177.341 -4V135M186.246 -4V135M195.151 -4V135M204.056 -4V135M212.96 -4V135M1 6.79612H222M1 15.433H222M1 24.0699H222M1 32.7068H222M1 41.3437H222M1 49.9806H222M1 58.6175H222M1 67.2544H222M1 75.8913H222M1 84.5282H222M1 93.165H222M1 101.802H222M1 110.439H222M1 119.076H222M1 127.713H222" stroke="url(#paint0_linear_303_120)" stroke-opacity="0.1" stroke-width="0.6"/>
<path d="M73.032 54.768V62.416C73.032 63.6 72.696 64.512 72.024 65.152C71.3627 65.792 70.4667 66.112 69.336 66.112C68.152 66.112 67.2027 65.776 66.488 65.104C65.7733 64.432 65.416 63.4773 65.416 62.24H68.136C68.136 62.7093 68.232 63.0667 68.424 63.312C68.616 63.5467 68.8933 63.664 69.256 63.664C69.5867 63.664 69.8427 63.5573 70.024 63.344C70.2053 63.1307 70.296 62.8213 70.296 62.416V54.768H73.032ZM74.998 61.52C74.998 60.6027 75.1687 59.7973 75.51 59.104C75.862 58.4107 76.3367 57.8773 76.934 57.504C77.5313 57.1307 78.198 56.944 78.934 56.944C79.5633 56.944 80.1127 57.072 80.582 57.328C81.062 57.584 81.43 57.92 81.686 58.336V57.072H84.422V66H81.686V64.736C81.4193 65.152 81.046 65.488 80.566 65.744C80.0967 66 79.5473 66.128 78.918 66.128C78.1927 66.128 77.5313 65.9413 76.934 65.568C76.3367 65.184 75.862 64.6453 75.51 63.952C75.1687 63.248 74.998 62.4373 74.998 61.52ZM81.686 61.536C81.686 60.8533 81.494 60.3147 81.11 59.92C80.7367 59.5253 80.278 59.328 79.734 59.328C79.19 59.328 78.726 59.5253 78.342 59.92C77.9687 60.304 77.782 60.8373 77.782 61.52C77.782 62.2027 77.9687 62.7467 78.342 63.152C78.726 63.5467 79.19 63.744 79.734 63.744C80.278 63.744 80.7367 63.5467 81.11 63.152C81.494 62.7573 81.686 62.2187 81.686 61.536ZM90.7174 63.44L92.6534 57.072H95.5654L92.3974 66H89.0214L85.8534 57.072H88.7814L90.7174 63.44ZM96.473 61.52C96.473 60.6027 96.6437 59.7973 96.985 59.104C97.337 58.4107 97.8117 57.8773 98.409 57.504C99.0063 57.1307 99.673 56.944 100.409 56.944C101.038 56.944 101.588 57.072 102.057 57.328C102.537 57.584 102.905 57.92 103.161 58.336V57.072H105.897V66H103.161V64.736C102.894 65.152 102.521 65.488 102.041 65.744C101.572 66 101.022 66.128 100.393 66.128C99.6677 66.128 99.0063 65.9413 98.409 65.568C97.8117 65.184 97.337 64.6453 96.985 63.952C96.6437 63.248 96.473 62.4373 96.473 61.52ZM103.161 61.536C103.161 60.8533 102.969 60.3147 102.585 59.92C102.212 59.5253 101.753 59.328 101.209 59.328C100.665 59.328 100.201 59.5253 99.817 59.92C99.4437 60.304 99.257 60.8373 99.257 61.52C99.257 62.2027 99.4437 62.7467 99.817 63.152C100.201 63.5467 100.665 63.744 101.209 63.744C101.753 63.744 102.212 63.5467 102.585 63.152C102.969 62.7573 103.161 62.2187 103.161 61.536ZM112.24 66.112C111.419 66.112 110.683 65.9787 110.032 65.712C109.382 65.4453 108.859 65.0507 108.464 64.528C108.08 64.0053 107.878 63.376 107.856 62.64H110.768C110.811 63.056 110.955 63.376 111.2 63.6C111.446 63.8133 111.766 63.92 112.16 63.92C112.566 63.92 112.886 63.8293 113.12 63.648C113.355 63.456 113.472 63.1947 113.472 62.864C113.472 62.5867 113.376 62.3573 113.184 62.176C113.003 61.9947 112.774 61.8453 112.496 61.728C112.23 61.6107 111.846 61.4773 111.344 61.328C110.619 61.104 110.027 60.88 109.568 60.656C109.11 60.432 108.715 60.1013 108.384 59.664C108.054 59.2267 107.888 58.656 107.888 57.952C107.888 56.9067 108.267 56.0907 109.024 55.504C109.782 54.9067 110.768 54.608 111.984 54.608C113.222 54.608 114.219 54.9067 114.976 55.504C115.734 56.0907 116.139 56.912 116.192 57.968H113.232C113.211 57.6053 113.078 57.3227 112.832 57.12C112.587 56.9067 112.272 56.8 111.888 56.8C111.558 56.8 111.291 56.8907 111.088 57.072C110.886 57.2427 110.784 57.4933 110.784 57.824C110.784 58.1867 110.955 58.4693 111.296 58.672C111.638 58.8747 112.171 59.0933 112.896 59.328C113.622 59.5733 114.208 59.808 114.656 60.032C115.115 60.256 115.51 60.5813 115.84 61.008C116.171 61.4347 116.336 61.984 116.336 62.656C116.336 63.296 116.171 63.8773 115.84 64.4C115.52 64.9227 115.051 65.3387 114.432 65.648C113.814 65.9573 113.083 66.112 112.24 66.112ZM117.776 61.536C117.776 60.608 117.963 59.7973 118.336 59.104C118.72 58.4107 119.248 57.8773 119.92 57.504C120.603 57.1307 121.381 56.944 122.256 56.944C123.376 56.944 124.309 57.2373 125.056 57.824C125.813 58.4107 126.309 59.2373 126.544 60.304H123.632C123.387 59.6213 122.912 59.28 122.208 59.28C121.707 59.28 121.307 59.4773 121.008 59.872C120.709 60.256 120.56 60.8107 120.56 61.536C120.56 62.2613 120.709 62.8213 121.008 63.216C121.307 63.6 121.707 63.792 122.208 63.792C122.912 63.792 123.387 63.4507 123.632 62.768H126.544C126.309 63.8133 125.813 64.6347 125.056 65.232C124.299 65.8293 123.365 66.128 122.256 66.128C121.381 66.128 120.603 65.9413 119.92 65.568C119.248 65.1947 118.72 64.6613 118.336 63.968C117.963 63.2747 117.776 62.464 117.776 61.536ZM131.044 58.56C131.364 58.0693 131.764 57.6853 132.244 57.408C132.724 57.12 133.257 56.976 133.844 56.976V59.872H133.092C132.409 59.872 131.897 60.0213 131.556 60.32C131.214 60.608 131.044 61.12 131.044 61.856V66H128.308V57.072H131.044V58.56ZM136.827 56.144C136.347 56.144 135.953 56.0053 135.643 55.728C135.345 55.44 135.195 55.088 135.195 54.672C135.195 54.2453 135.345 53.8933 135.643 53.616C135.953 53.328 136.347 53.184 136.827 53.184C137.297 53.184 137.681 53.328 137.979 53.616C138.289 53.8933 138.443 54.2453 138.443 54.672C138.443 55.088 138.289 55.44 137.979 55.728C137.681 56.0053 137.297 56.144 136.827 56.144ZM138.187 57.072V66H135.451V57.072H138.187ZM143.206 58.336C143.473 57.92 143.841 57.584 144.31 57.328C144.779 57.072 145.329 56.944 145.958 56.944C146.694 56.944 147.361 57.1307 147.958 57.504C148.555 57.8773 149.025 58.4107 149.366 59.104C149.718 59.7973 149.894 60.6027 149.894 61.52C149.894 62.4373 149.718 63.248 149.366 63.952C149.025 64.6453 148.555 65.184 147.958 65.568C147.361 65.9413 146.694 66.128 145.958 66.128C145.339 66.128 144.79 66 144.31 65.744C143.841 65.488 143.473 65.1573 143.206 64.752V70.256H140.47V57.072H143.206V58.336ZM147.11 61.52C147.11 60.8373 146.918 60.304 146.534 59.92C146.161 59.5253 145.697 59.328 145.142 59.328C144.598 59.328 144.134 59.5253 143.75 59.92C143.377 60.3147 143.19 60.8533 143.19 61.536C143.19 62.2187 143.377 62.7573 143.75 63.152C144.134 63.5467 144.598 63.744 145.142 63.744C145.686 63.744 146.15 63.5467 146.534 63.152C146.918 62.7467 147.11 62.2027 147.11 61.52ZM156.605 63.68V66H155.213C154.221 66 153.448 65.76 152.893 65.28C152.339 64.7893 152.061 63.9947 152.061 62.896V59.344H150.973V57.072H152.061V54.896H154.797V57.072H156.589V59.344H154.797V62.928C154.797 63.1947 154.861 63.3867 154.989 63.504C155.117 63.6213 155.331 63.68 155.629 63.68H156.605Z" fill="white"/>
</g>
<defs>
<filter id="filter0_f_303_120" x="83.9414" y="-35.1346" width="257.985" height="295.595" filterUnits="userSpaceOnUse" color-interpolation-filters="sRGB">
<feFlood flood-opacity="0" result="BackgroundImageFix"/>
<feBlend mode="normal" in="SourceGraphic" in2="BackgroundImageFix" result="shape"/>
<feGaussianBlur stdDeviation="40" result="effect1_foregroundBlur_303_120"/>
</filter>
<linearGradient id="paint0_linear_303_120" x1="222" y1="111" x2="167.5" y2="66" gradientUnits="userSpaceOnUse">
<stop stop-color="white"/>
<stop offset="1" stop-color="white" stop-opacity="0"/>
</linearGradient>
</defs>
</svg>
