<svg width="100" height="62" viewBox="0 0 100 62" fill="none" xmlns="http://www.w3.org/2000/svg">
<g clip-path="url(#clip0_12_266)">
<path d="M23.4146 16.7451H42.053V18.2409H25.1231V29.4987H41.0435V30.9945H25.1231V43.3544H42.2472V44.8502H23.4146V16.7451ZM43.7227 16.7451H45.7031L54.4787 29.1051L63.4485 16.7451L75.6488 1.04517L55.6048 30.404L65.9336 44.8502H63.8756L54.4787 31.703L45.043 44.8502H43.0238L53.4303 30.404L43.7227 16.7451ZM66.6714 18.2409V16.7451H87.9115V18.2409H78.1263V44.8502H76.4178V18.2409H66.6714Z" fill="#888888"/>
<path d="M0.0970459 16.7451H2.23271L31.6822 61.2411L19.5121 44.8502L1.88323 18.8707L1.80557 44.8502H0.0970459V16.7451Z" fill="#888888"/>
<path d="M87.7394 42.9031C88.0926 42.9031 88.3503 42.63 88.3503 42.2771C88.3503 41.9241 88.0926 41.6511 87.7394 41.6511C87.3903 41.6511 87.1285 41.9241 87.1285 42.2771C87.1285 42.63 87.3903 42.9031 87.7394 42.9031ZM89.4182 41.2561C89.4182 42.2981 90.1621 42.9787 91.2467 42.9787C92.4019 42.9787 93.1 42.2771 93.1 41.0587V36.7691H92.1692V41.0545C92.1692 41.7309 91.8326 42.0922 91.2384 42.0922C90.7064 42.0922 90.3449 41.7561 90.3325 41.2561H89.4182ZM94.3176 41.2015C94.3841 42.2855 95.2775 42.9787 96.6073 42.9787C98.0285 42.9787 98.9178 42.2518 98.9178 41.0923C98.9178 40.1806 98.4108 39.6764 97.1808 39.3865L96.52 39.2227C95.7388 39.0378 95.423 38.79 95.423 38.3572C95.423 37.811 95.9133 37.4539 96.6489 37.4539C97.347 37.4539 97.829 37.8026 97.9163 38.3614H98.8222C98.7682 37.3405 97.8789 36.6221 96.6613 36.6221C95.3523 36.6221 94.4797 37.3405 94.4797 38.4202C94.4797 39.3109 94.9742 39.8403 96.0588 40.0966L96.8317 40.2856C97.6254 40.4747 97.9745 40.752 97.9745 41.2141C97.9745 41.7519 97.4259 42.1426 96.678 42.1426C95.8759 42.1426 95.3191 41.7771 95.2401 41.2015H94.3176Z" fill="#888888"/>
</g>
<defs>
<clipPath id="clip0_12_266">
<rect width="99.0316" height="60.1881" fill="white" transform="translate(0 0.906006)"/>
</clipPath>
</defs>
</svg>
