<svg width="54" height="62" viewBox="0 0 54 62" fill="none" xmlns="http://www.w3.org/2000/svg">
<g clip-path="url(#clip0_12_280)">
<path d="M27.0105 60.9824C26.1945 60.9824 25.433 60.7616 24.7258 60.3753L17.4911 56.0151C16.4031 55.408 16.9471 55.1873 17.2735 55.0769C18.7422 54.5802 19.0142 54.4698 20.5373 53.5867C20.7005 53.4763 20.9181 53.5315 21.0812 53.6419L26.6297 57.0086C26.8473 57.119 27.1193 57.119 27.2825 57.0086L48.9868 44.2593C49.2044 44.1489 49.3132 43.9281 49.3132 43.6522V18.2087C49.3132 17.9327 49.2044 17.7119 48.9868 17.6016L27.2825 4.90742C27.0649 4.79704 26.7929 4.79704 26.6297 4.90742L4.92537 17.6016C4.70779 17.7119 4.59899 17.9879 4.59899 18.2087V43.6522C4.59899 43.8729 4.70779 44.1489 4.92537 44.2593L10.8546 47.7364C14.064 49.3921 16.0767 47.4604 16.0767 45.5287V20.4164C16.0767 20.0852 16.3487 19.754 16.7295 19.754H19.5037C19.8301 19.754 20.1565 20.03 20.1565 20.4164V45.5287C20.1565 49.8888 17.8174 52.4277 13.7377 52.4277C12.4865 52.4277 11.5074 52.4277 8.73316 51.0479L3.02148 47.7364C1.60717 46.9085 0.736816 45.3631 0.736816 43.7073V18.2639C0.736816 16.6081 1.60717 15.0627 3.02148 14.2349L24.7258 1.48552C26.0858 0.712834 27.9352 0.712834 29.2952 1.48552L50.9995 14.2349C52.4138 15.0627 53.2842 16.6081 53.2842 18.2639V43.7073C53.2842 45.3631 52.4138 46.9085 50.9995 47.7364L29.2952 60.4857C28.588 60.8168 27.7721 60.9824 27.0105 60.9824ZM33.7013 43.4866C24.1819 43.4866 22.2236 39.0712 22.2236 35.3182C22.2236 34.987 22.4956 34.6559 22.8763 34.6559H25.705C26.0314 34.6559 26.3033 34.8766 26.3033 35.2078C26.7385 38.133 27.9896 39.568 33.7557 39.568C38.3251 39.568 40.2833 38.5193 40.2833 36.0357C40.2833 34.6007 39.7394 33.552 32.6134 32.8345C26.6841 32.2274 22.9851 30.9028 22.9851 26.1011C22.9851 21.6306 26.6841 18.9814 32.8854 18.9814C39.8482 18.9814 43.2752 21.4098 43.7103 26.7082C43.7103 26.8738 43.6559 27.0394 43.5471 27.205C43.4384 27.3153 43.2752 27.4257 43.112 27.4257H40.2833C40.0114 27.4257 39.7394 27.205 39.685 26.929C39.0322 23.8934 37.3459 22.9 32.8854 22.9C27.8809 22.9 27.2825 24.6661 27.2825 25.9907C27.2825 27.5913 27.9896 28.088 34.7349 28.9711C41.4257 29.8542 44.5807 31.1236 44.5807 35.8701C44.5263 40.727 40.6097 43.4866 33.7013 43.4866Z" fill="#888888"/>
</g>
<defs>
<clipPath id="clip0_12_280">
<rect width="52.5474" height="60.1881" fill="white" transform="translate(0.736816 0.906006)"/>
</clipPath>
</defs>
</svg>
