<svg width="68" height="62" viewBox="0 0 68 62" fill="none" xmlns="http://www.w3.org/2000/svg">
<g clip-path="url(#clip0_12_274)">
<path d="M33.8842 37.0296C37.217 37.0296 39.9188 34.33 39.9188 31C39.9188 27.67 37.217 24.9705 33.8842 24.9705C30.5514 24.9705 27.8496 27.67 27.8496 31C27.8496 34.33 30.5514 37.0296 33.8842 37.0296Z" fill="#888888"/>
<path d="M33.8842 43.3533C51.7676 43.3533 66.265 37.8226 66.265 31.0001C66.265 24.1776 51.7676 18.6469 33.8842 18.6469C16.0008 18.6469 1.50342 24.1776 1.50342 31.0001C1.50342 37.8226 16.0008 43.3533 33.8842 43.3533Z" stroke="#888888"/>
<path d="M23.1771 37.1767C32.1188 52.6512 44.1612 62.4304 50.0746 59.0192C55.988 55.6079 53.5331 40.298 44.5914 24.8234C35.6497 9.34891 23.6072 -0.430315 17.6938 2.98093C11.7804 6.39218 14.2354 21.7021 23.1771 37.1767Z" stroke="#888888"/>
<path d="M23.177 24.8235C14.2353 40.298 11.7804 55.608 17.6938 59.0192C23.6072 62.4305 35.6496 52.6512 44.5913 37.1767C53.5331 21.7022 55.988 6.39223 50.0746 2.98098C44.1612 -0.43027 32.1187 9.34895 23.177 24.8235Z" stroke="#888888"/>
</g>
<defs>
<clipPath id="clip0_12_274">
<rect width="67.7053" height="60.1881" fill="white" transform="translate(0.0316162 0.906006)"/>
</clipPath>
</defs>
</svg>
