<svg width="222" height="120" viewBox="0 0 222 120" fill="none" xmlns="http://www.w3.org/2000/svg">
<mask id="mask0_303_124" style="mask-type:alpha" maskUnits="userSpaceOnUse" x="0" y="0" width="222" height="120">
<rect width="222" height="120" rx="2" fill="#1F1D2B"/>
</mask>
<g mask="url(#mask0_303_124)">
<rect width="222" height="120" rx="2" fill="#1F1D2B"/>
<rect x="-61" y="-61" width="100" height="100" fill="#525298"/>
<rect x="16" y="16" width="32" height="32" fill="#525298" fill-opacity="0.4"/>
<rect x="40" y="40" width="14" height="14" fill="#525298" fill-opacity="0.4"/>
<rect x="296" y="192" width="100" height="100" transform="rotate(-180 296 192)" fill="#525298"/>
<rect x="219" y="115" width="32" height="32" transform="rotate(-180 219 115)" fill="#525298" fill-opacity="0.4"/>
<rect x="195" y="91" width="14" height="14" transform="rotate(-180 195 91)" fill="#525298" fill-opacity="0.4"/>
<path d="M101.056 66.112C100.235 66.112 99.4987 65.9787 98.848 65.712C98.1973 65.4453 97.6747 65.0507 97.28 64.528C96.896 64.0053 96.6933 63.376 96.672 62.64H99.584C99.6267 63.056 99.7707 63.376 100.016 63.6C100.261 63.8133 100.581 63.92 100.976 63.92C101.381 63.92 101.701 63.8293 101.936 63.648C102.171 63.456 102.288 63.1947 102.288 62.864C102.288 62.5867 102.192 62.3573 102 62.176C101.819 61.9947 101.589 61.8453 101.312 61.728C101.045 61.6107 100.661 61.4773 100.16 61.328C99.4347 61.104 98.8427 60.88 98.384 60.656C97.9253 60.432 97.5307 60.1013 97.2 59.664C96.8693 59.2267 96.704 58.656 96.704 57.952C96.704 56.9067 97.0827 56.0907 97.84 55.504C98.5973 54.9067 99.584 54.608 100.8 54.608C102.037 54.608 103.035 54.9067 103.792 55.504C104.549 56.0907 104.955 56.912 105.008 57.968H102.048C102.027 57.6053 101.893 57.3227 101.648 57.12C101.403 56.9067 101.088 56.8 100.704 56.8C100.373 56.8 100.107 56.8907 99.904 57.072C99.7013 57.2427 99.6 57.4933 99.6 57.824C99.6 58.1867 99.7707 58.4693 100.112 58.672C100.453 58.8747 100.987 59.0933 101.712 59.328C102.437 59.5733 103.024 59.808 103.472 60.032C103.931 60.256 104.325 60.5813 104.656 61.008C104.987 61.4347 105.152 61.984 105.152 62.656C105.152 63.296 104.987 63.8773 104.656 64.4C104.336 64.9227 103.867 65.3387 103.248 65.648C102.629 65.9573 101.899 66.112 101.056 66.112ZM115.136 67.92L113.696 65.984C113.269 66.0693 112.853 66.112 112.448 66.112C111.392 66.112 110.421 65.8667 109.536 65.376C108.661 64.8853 107.962 64.2027 107.44 63.328C106.928 62.4427 106.672 61.4507 106.672 60.352C106.672 59.2533 106.928 58.2667 107.44 57.392C107.962 56.5173 108.661 55.8347 109.536 55.344C110.421 54.8533 111.392 54.608 112.448 54.608C113.504 54.608 114.469 54.8533 115.344 55.344C116.229 55.8347 116.922 56.5173 117.424 57.392C117.936 58.2667 118.192 59.2533 118.192 60.352C118.192 61.312 117.994 62.192 117.6 62.992C117.216 63.7813 116.677 64.4373 115.984 64.96L118.448 67.92H115.136ZM109.472 60.352C109.472 61.344 109.738 62.1387 110.272 62.736C110.816 63.3227 111.541 63.616 112.448 63.616C113.344 63.616 114.058 63.3173 114.592 62.72C115.136 62.1227 115.408 61.3333 115.408 60.352C115.408 59.36 115.136 58.5707 114.592 57.984C114.058 57.3867 113.344 57.088 112.448 57.088C111.541 57.088 110.816 57.3813 110.272 57.968C109.738 58.5547 109.472 59.3493 109.472 60.352ZM122.781 63.888H126.365V66H120.045V54.768H122.781V63.888Z" fill="white"/>
</g>
</svg>
