<svg width="283" height="37" viewBox="0 0 283 37" fill="none" xmlns="http://www.w3.org/2000/svg">
<g clip-path="url(#clip0_12_283)">
<path d="M29.4129 0.946777C21.6454 0.946777 16.7908 4.8478 14.8491 12.6504C17.7621 8.74881 21.1608 7.28586 25.0446 8.26153C27.2604 8.8174 28.8441 10.433 30.5974 12.2201C33.4531 15.1316 36.7587 18.5016 43.9784 18.5016C51.746 18.5016 56.6006 14.6006 58.5427 6.79803C55.6298 10.6996 52.2311 12.1626 48.3473 11.1869C46.1315 10.631 44.5478 9.01541 42.7945 7.22834C39.9382 4.31682 36.6332 0.946777 29.4129 0.946777ZM14.8491 18.5016C7.08156 18.5016 2.22696 22.4027 0.28479 30.2052C3.19777 26.3037 6.59588 24.8407 10.4797 25.8164C12.6961 26.3734 14.2792 27.9879 16.0325 29.7749C18.8882 32.6865 22.1944 36.0565 29.4135 36.0565C37.1816 36.0565 42.0362 32.1555 43.9784 24.3529C41.0654 28.2545 37.6668 29.7174 33.783 28.7417C31.5671 28.1859 29.9834 26.5703 28.2301 24.7838C25.3744 21.8717 22.0688 18.5016 14.8491 18.5016Z" fill="#888888"/>
<path d="M87.6664 15.7406H82.5833V25.6234C82.5833 28.2589 84.3046 28.2174 87.6664 28.0526V32.0471C80.8614 32.8707 78.1554 30.9763 78.1554 25.6234V15.7406H74.3834V11.4579H78.1554V5.92692L82.5827 4.60943V11.4579H87.6664V15.7406ZM107.045 11.4579H111.472V32.0476H107.045V29.083C105.487 31.265 103.068 32.583 99.8701 32.583C94.2952 32.583 89.6625 27.8474 89.6625 21.7533C89.6625 15.6178 94.2952 10.9236 99.8706 10.9236C103.068 10.9236 105.487 12.2411 107.045 14.3822V11.4579ZM100.567 28.3419C104.257 28.3419 107.045 25.5825 107.045 21.7533C107.045 17.9242 104.257 15.1648 100.567 15.1648C96.8772 15.1648 94.0898 17.9237 94.0898 21.7533C94.0898 25.583 96.8778 28.3419 100.567 28.3419ZM118.852 8.36941C117.293 8.36941 116.023 7.05137 116.023 5.52758C116.025 4.77447 116.323 4.05263 116.853 3.52011C117.383 2.98758 118.102 2.68776 118.852 2.6863C119.602 2.68776 120.32 2.98758 120.85 3.52011C121.381 4.05263 121.679 4.77447 121.681 5.52758C121.681 7.05137 120.41 8.36941 118.852 8.36941ZM116.638 32.0465V11.4579H121.065V32.0476L116.638 32.0465ZM126.19 32.0465V1.98718H130.618V32.0471L126.19 32.0465ZM159.356 11.4574H164.029L157.593 32.0476H153.248L148.984 18.1704L144.679 32.0476H140.334L133.897 11.4585H138.571L142.548 25.6649L146.852 11.4585H151.075L155.338 25.6649L159.356 11.4574ZM169.523 8.36941C167.965 8.36941 166.695 7.05137 166.695 5.52758C166.696 4.77447 166.995 4.05263 167.525 3.52011C168.055 2.98758 168.774 2.68776 169.523 2.6863C170.273 2.68776 170.992 2.98758 171.522 3.52011C172.052 4.05263 172.351 4.77447 172.352 5.52758C172.352 7.05137 171.081 8.36941 169.523 8.36941ZM167.31 32.0465V11.4579H171.737V32.0476L167.31 32.0465ZM187.643 10.922C192.235 10.922 195.515 14.052 195.515 19.4049V32.0465H191.088V19.8584C191.088 16.729 189.283 15.0818 186.495 15.0818C183.585 15.0818 181.289 16.8114 181.289 21.0111V32.0476H176.862V11.4579H181.289V14.0934C182.642 11.9524 184.856 10.9225 187.644 10.9225L187.643 10.922ZM216.505 3.22226H220.933V32.0476H216.505V29.083C214.947 31.265 212.529 32.583 209.331 32.583C203.756 32.583 199.123 27.8474 199.123 21.7533C199.123 15.6178 203.756 10.9236 209.331 10.9236C212.529 10.9236 214.948 12.2411 216.505 14.3822V3.22226ZM210.028 28.3419C213.717 28.3419 216.505 25.5825 216.505 21.7533C216.505 17.9242 213.717 15.1648 210.028 15.1648C206.338 15.1648 203.55 17.9237 203.55 21.7533C203.55 25.583 206.338 28.3419 210.028 28.3419ZM235.773 32.583C229.582 32.583 224.95 27.8474 224.95 21.7533C224.95 15.6178 229.582 10.9236 235.773 10.9236C239.791 10.9236 243.276 13.0232 244.916 16.2351L241.103 18.4585C240.201 16.5238 238.192 15.2881 235.732 15.2881C232.124 15.2881 229.378 18.047 229.378 21.7533C229.378 25.4597 232.124 28.218 235.732 28.218C238.192 28.218 240.201 26.9414 241.185 25.0476L244.997 27.2296C243.276 30.4829 239.791 32.583 235.774 32.583H235.773ZM252.294 17.141C252.294 20.8883 263.322 18.6233 263.322 26.2418C263.322 30.3596 259.756 32.583 255.328 32.583C251.229 32.583 248.277 30.7302 246.965 27.7655L250.778 25.5415C251.434 27.3944 253.074 28.5061 255.328 28.5061C257.296 28.5061 258.813 27.848 258.813 26.2003C258.813 22.5354 247.785 24.5946 247.785 17.2234C247.785 13.3528 251.106 10.9236 255.287 10.9236C258.649 10.9236 261.437 12.4878 262.871 15.2057L259.141 17.3059C258.403 15.7002 256.968 14.9585 255.287 14.9585C253.689 14.9585 252.294 15.6587 252.294 17.141ZM271.194 17.141C271.194 20.8883 282.222 18.6233 282.222 26.2418C282.222 30.3596 278.655 32.583 274.228 32.583C270.128 32.583 267.176 30.7302 265.864 27.7655L269.677 25.5415C270.333 27.3944 271.973 28.5061 274.228 28.5061C276.196 28.5061 277.712 27.848 277.712 26.2003C277.712 22.5354 266.684 24.5946 266.684 17.2234C266.684 13.3528 270.005 10.9236 274.187 10.9236C277.548 10.9236 280.336 12.4878 281.771 15.2057L278.04 17.3059C277.302 15.7002 275.867 14.9585 274.187 14.9585C272.588 14.9585 271.194 15.6587 271.194 17.141Z" fill="#888888"/>
</g>
<defs>
<clipPath id="clip0_12_283">
<rect width="281.937" height="35.1097" fill="white" transform="translate(0.28418 0.946777)"/>
</clipPath>
</defs>
</svg>
