<svg width="1442" height="645" viewBox="0 0 1442 645" fill="none" xmlns="http://www.w3.org/2000/svg">
<path d="M0.5 0V642M40.5 0V642M80.5 0V642M120.5 0V642M160.5 0V642M200.5 0V642M240.5 0V642M280.5 0V642M320.5 0V642M360.5 0V642M400.5 0V642M440.5 0V642M480.5 0V642M520.5 0V642M560.5 0V642M600.5 0V642M640.5 0V642M680.5 0V642M720.5 0V642M760.5 0V642M800.5 0V642M840.5 0V642M880.5 0V642M920.5 0V642M960.5 0V642M1000.5 0V642M1040.5 0V642M1080.5 0V642M1120.5 0V642M1160.5 0V642M1200.5 0V642M1240.5 0V642M1280.5 0V642M1320.5 0V642M1360.5 0V642M1400.5 0V642M1440.5 0V642M2 4.5H1441.5M2 44.5H1441.5M2 84.5H1441.5M2 124.5H1441.5M2 164.5H1441.5M2 204.5H1441.5M2 244.5H1441.5M2 284.5H1441.5M2 324.5H1441.5M2 364.5H1441.5M2 404.5H1441.5M2 444.5H1441.5M2 484.5H1441.5M2 524.5H1441.5M2 564.5H1441.5M2 604.5H1441.5M2 644.5H1441.5" stroke="url(#paint0_radial_317_102)" stroke-width="0.8"/>
<defs>
<radialGradient id="paint0_radial_317_102" cx="0" cy="0" r="1" gradientUnits="userSpaceOnUse" gradientTransform="translate(721 182.5) rotate(90) scale(439.5 390.651)">
<stop stop-color="white"/>
<stop offset="1" stop-color="white" stop-opacity="0"/>
</radialGradient>
</defs>
</svg>
